<?xml version="1.0" standalone="no"?>
<!DOCTYPE svg PUBLIC "-//W3C//DTD SVG 1.1//EN" "http://www.w3.org/Graphics/SVG/1.1/DTD/svg11.dtd">
<svg xmlns="http://www.w3.org/2000/svg">
<defs >
<font id="Gelasio" horiz-adv-x="1200" ><font-face
    font-family="Gelasio"
    units-per-em="2048"
    panose-1="0 0 5 0 0 0 0 0 0 0"
    ascent="1900"
    descent="-700"
    alphabetic="0" />
<glyph unicode=" " glyph-name="space" horiz-adv-x="494" />
<glyph unicode="!" glyph-name="exclam" horiz-adv-x="678" d="M268 830T225 1210Q222 1238 215 1303T208 1389Q208 1427 225 1459T273 1509T339 1528Q375 1528 405 1510T452 1459T470 1389Q470 1373 465 1329T456 1264Q431 1079 412 888T379 432H299Q268 830
225 1210ZM300 -20T268 -1T218 52T199 122Q199 159 217 190T268 239T339 257Q378 257 410 239T461 190T480 122Q480 85 461 52T410 0T339 -20Q300 -20 268 -1Z" />
<glyph unicode="&quot;" glyph-name="quotedbl" horiz-adv-x="843" d="M156 1105T156 1210Q156 1356 157 1435T163 1542Q172 1603 207 1642T296 1681Q341 1681 364 1653T388 1576Q388 1560 385 1542Q381 1516 355 1429T309 1279T281 1190Q236 1047 212 967H154Q156
1105 156 1210ZM565 1105T565 1210Q565 1356 566 1435T572 1542Q581 1603 616 1642T705 1681Q750 1681 773 1653T797 1576Q797 1560 794 1542Q790 1516 764 1429T718 1279T690 1190Q645 1047 621 967H563Q565 1105 565 1210Z" />
<glyph unicode="#" glyph-name="numbersign" horiz-adv-x="1317" d="M308 400H99V526H332L402 900H148V1026H426L500 1419H647L573 1026H863L937 1419H1084L1010 1026H1218V900H986L915 526H1148V400H891L815 0H670L745 400H454L378 0H233L308 400ZM769 526L839
900H549L478 526H769Z" />
<glyph unicode="$" glyph-name="dollar" horiz-adv-x="1249" d="M545 -19T506 -6T422 27Q402 37 390 41Q371 48 344 65Q334 72 324 77T306 82Q292 82 276 65Q238 24 210 24Q193 24 183 37T175 72Q177 99 177 154Q177 262 167 358T156 460Q156 484 168 497T199
510Q215 510 228 499T246 468Q254 431 267 391T316 274Q350 202 409 154T535 82T658 59Q721 59 773 85T856 168T888 311Q888 365 849 411T749 494T594 576Q482 630 401 685T265 821T211 1005Q211 1113 269 1189T416 1305T601 1350V1548H707V1345Q758 1337 824 1314Q851
1305 860 1303Q875 1300 886 1300Q901 1300 909 1304T926 1315T942 1327Q953 1334 966 1334Q983 1334 996 1323T1009 1296Q1009 1269 1016 1178T1034 1014Q1035 1007 1035 996Q1035 968 1023 955T992 942Q978 942 966 949T953 965Q927 1119 844 1195T645 1272Q409
1272 409 1049Q409 970 489 904T715 765Q826 709 906 653T1039 521T1092 352Q1092 233 1044 150T908 22T707 -29V-245H601V-26Q545 -19 506 -6Z" />
<glyph unicode="%" glyph-name="percent" horiz-adv-x="1674" d="M338 711T264 755T150 882T109 1076Q109 1189 150 1273T266 1403T442 1449Q545 1449 621 1404T738 1274T779 1076Q779 965 737 883T618 756T438 711Q338 711 264 755ZM1153 1419H1300L506 0H361L1153
1419ZM532 788T570 857T609 1076Q609 1228 569 1300T437 1372Q345 1372 307 1301T268 1076Q268 927 307 858T440 788Q532 788 570 857ZM1124 -29T1050 15T936 142T895 336Q895 449 936 533T1052 663T1228 709Q1331 709 1407 664T1524 534T1565 336Q1565 225 1523
143T1404 16T1224 -29Q1124 -29 1050 15ZM1318 48T1356 117T1395 336Q1395 488 1355 560T1223 632Q1131 632 1093 561T1054 336Q1054 187 1093 118T1226 48Q1318 48 1356 117Z" />
<glyph unicode="&amp;" glyph-name="ampersand" horiz-adv-x="1455" d="M398 -29T293 22T130 163T72 365Q72 637 389 758Q313 852 269 939T224 1109Q224 1202 263 1279T384 1402T590 1448Q694 1448 768 1417T882 1329T921 1198Q921 1104 894 1043T801 926T600
793L963 383Q995 452 1046 595T1097 760Q1097 789 1061 801T977 818Q959 820 953 829T946 855Q946 871 955 883T980 896H1373Q1389 896 1398 884T1407 855Q1407 818 1374 818Q1323 818 1285 799T1222 741Q1190 683 1121 526Q1059 386 1024 315L1160 162Q1190 132
1244 108T1345 78Q1367 76 1374 70T1381 41Q1381 25 1372 13T1347 0H1053L923 148Q849 63 755 17T537 -29Q398 -29 293 22ZM637 908T677 947T734 1040T752 1192Q752 1230 734 1273T677 1348T583 1379Q539 1379 499 1353T435 1283T411 1188Q411 1085 443 1009T550
850Q637 908 677 947ZM630 67T707 102T860 219L440 705Q348 646 317 560T286 365Q286 287 314 219T400 109T545 67Q630 67 707 102Z" />
<glyph unicode="&apos;" glyph-name="quotesingle" horiz-adv-x="441" d="M138 1105T138 1210Q138 1356 139 1435T145 1542Q154 1603 189 1642T278 1681Q323 1681 346 1653T370 1576Q370 1560 367 1542Q363 1516 337 1429T291 1279T263 1190Q218 1047 194 967H136Q138
1105 138 1210Z" />
<glyph unicode="(" glyph-name="parenleft" horiz-adv-x="768" d="M553 -340T419 -247T190 56T95 596Q95 926 189 1136T418 1439T678 1532V1449Q603 1449 518 1386T367 1132T300 596Q300 250 366 60T518 -193T678 -257V-340Q553 -340 419 -247Z" />
<glyph unicode=")" glyph-name="parenright" horiz-adv-x="768" d="M165 -257T250 -194T401 60T468 596Q468 942 402 1132T250 1385T90 1449V1532Q215 1532 349 1439T578 1136T673 596Q673 266 579 56T350 -247T90 -340V-257Q165 -257 250 -194Z" />
<glyph unicode="*" glyph-name="asterisk" horiz-adv-x="967" d="M249 722T220 750T191 819Q191 858 217 892Q229 908 325 992Q325 992 370 1031Q420 1075 432 1087Q414 1089 373 1090T316 1091Q305 1091 263 1091T194 1094T157 1100Q120 1113 97 1138T74 1198Q74
1244 104 1271T174 1298Q198 1298 218 1290Q241 1281 329 1223Q421 1163 451 1148Q444 1192 435 1228T407 1323Q405 1330 397 1357T385 1403T381 1434Q381 1484 408 1516T485 1549Q532 1549 560 1517T589 1434Q589 1409 582 1380T559 1306Q548 1271 536 1230T517
1148Q550 1165 636 1223Q684 1253 715 1271T760 1293T794 1298Q834 1298 863 1271T893 1195Q893 1162 870 1137T809 1100Q794 1095 754 1094T687 1092T649 1091Q634 1091 594 1090T537 1087Q561 1063 609 1025Q663 981 695 952T752 887T777 819Q777 780 749 751T681
722Q655 722 631 736T588 776Q581 786 564 832T528 929Q497 1021 484 1049Q476 1032 462 993T442 936Q393 794 380 776Q362 751 338 737T287 722Q249 722 220 750Z" />
<glyph unicode="+" glyph-name="plus" horiz-adv-x="1317" d="M576 501H173V647H576V1062H742V647H1144V501H742V75H576V501Z" />
<glyph unicode="," glyph-name="comma" horiz-adv-x="552" d="M166 -360T153 -351T139 -325Q139 -315 144 -305T162 -281Q200 -239 220 -177T241 -63Q241 -25 233 -7Q186 2 154 31T121 120Q121 184 159 220T254 257Q324 257 368 205T412 52Q412 -34 377 -118T293
-264T210 -352Q199 -360 183 -360Q166 -360 153 -351Z" />
<glyph unicode="-" glyph-name="hyphen" horiz-adv-x="766" d="M106 622H660V496H106V622Z" />
<glyph unicode="." glyph-name="period" horiz-adv-x="552" d="M136 159T154 190T205 239T276 257Q315 257 347 239T398 190T417 122Q417 85 398 52T347 0T276 -20Q237 -20 205 -1T155 52T136 122Q136 159 154 190Z" />
<glyph unicode="/" glyph-name="slash" horiz-adv-x="960" d="M649 1600H786L309 -440H174L649 1600Z" />
<glyph unicode="0" glyph-name="zero" horiz-adv-x="1257" d="M476 -29T367 45T201 256T144 582Q144 773 203 913T372 1129T634 1205Q785 1205 893 1130T1057 914T1114 582Q1114 395 1056 257T888 45T627 -29Q476 -29 367 45ZM733 66T791 121T873 288T897 582Q897
766 872 880T788 1052T626 1110Q523 1110 465 1053T383 882T359 582Q359 401 383 289T467 122T630 66Q733 66 791 121Z" />
<glyph unicode="1" glyph-name="one" horiz-adv-x="880" d="M180 0T171 13T162 41Q162 58 169 67T195 78Q263 83 316 98T370 142L371 1018Q268 960 196 960Q173 960 162 983T150 1025Q150 1048 158 1059T186 1072Q240 1076 325 1107T473 1189H568L567 150Q567
115 619 100T749 78Q771 76 778 70T785 41Q785 27 776 14T751 0H196Q180 0 171 13Z" />
<glyph unicode="2" glyph-name="two" horiz-adv-x="1144" d="M126 62T143 85Q406 262 580 464T755 850Q755 909 734 968T659 1068T517 1109Q457 1109 422 1097T371 1066T339 1020Q333 1008 329 1002Q318 949 309 889L302 849Q296 815 280 795T235 774Q212 774
184 784T134 821T113 891Q113 921 126 960Q146 1021 206 1077T355 1169T542 1205Q743 1205 853 1113T964 851Q964 682 796 502T399 165H1033L1023 0H123V34Q126 62 143 85Z" />
<glyph unicode="3" glyph-name="three" horiz-adv-x="1130" d="M436 -394T334 -360T161 -252T91 -68Q91 -25 110 11T159 69T220 90Q256 90 285 70T314 6L267 -166Q290 -220 352 -259T519 -299Q615 -299 689 -259T805 -142T847 46Q847 174 787 251T644 360T486
391H423Q419 391 417 410T414 448Q414 505 423 505H486Q542 505 609 541T724 649T772 821Q772 929 725 1019T552 1109Q489 1109 453 1097T401 1066T368 1020Q365 1014 363 1010T358 1002Q347 949 338 889L331 849Q325 815 309 795T264 774Q240 774 211 784T159
821T137 892Q137 976 201 1048T366 1163T567 1205Q693 1205 786 1161T930 1035T981 840Q981 744 929 662T799 526T652 456Q750 455 839 415T986 287T1044 63Q1044 -72 978 -175T796 -336T534 -394Q436 -394 334 -360Z" />
<glyph unicode="4" glyph-name="four" horiz-adv-x="1157" d="M90 0Q78 0 68 22T57 73Q57 91 62 107T75 135L609 1170Q614 1181 630 1192T670 1203Q701 1203 731 1188T781 1147T801 1095L241 164H717V546L880 556V164H1114L1104 0H880V-328H717V0H90Z" />
<glyph unicode="5" glyph-name="five" horiz-adv-x="1082" d="M379 -392T284 -356T127 -256T64 -111Q64 -61 86 -23T139 36T195 57Q302 57 313 0L273 -230Q334 -298 495 -298Q596 -298 660 -231T751 -58T779 170Q779 284 746 362T654 478T522 516Q435 516 350
482T221 380L153 413L185 1189H952L942 1020H333L289 543Q342 579 418 603T554 627Q693 627 793 572T946 417T999 187Q999 14 930 -117T741 -320T470 -392Q379 -392 284 -356Z" />
<glyph unicode="6" glyph-name="six" horiz-adv-x="1159" d="M436 -29T325 49T155 254T96 522Q96 736 183 950T460 1325T935 1529L936 1437Q660 1371 521 1199T336 798Q390 858 459 895T636 933Q782 933 877 873T1018 710T1063 472Q1063 332 1006 218T841 38T583
-29Q436 -29 325 49ZM680 66T739 114T822 251T846 472Q846 632 788 723T610 815Q520 815 443 773T317 670Q308 586 308 472Q308 271 368 169T579 66Q680 66 739 114Z" />
<glyph unicode="7" glyph-name="seven" horiz-adv-x="1029" d="M339 1028Q284 1028 244 980T181 874T155 785Q153 767 140 760T108 752Q94 752 81 761T67 786L102 1190L939 1189L992 1122L440 -350L218 -349L835 1028H339Z" />
<glyph unicode="8" glyph-name="eight" horiz-adv-x="1221" d="M462 -30T355 24T193 169T139 373Q139 464 180 538T284 663T416 742Q319 816 264 902T209 1102Q209 1186 259 1266T405 1398T626 1449Q765 1449 855 1402T988 1274T1030 1091Q1030 983 962 897T797
756Q931 676 1007 584T1083 358Q1083 249 1031 161T874 22T616 -30Q462 -30 355 24ZM774 840T809 910T844 1102Q844 1211 791 1282T623 1354Q516 1354 461 1289T406 1107Q406 1049 434 1005T527 914T713 803Q774 840 809 910ZM746 65T816 131T886 314Q886 388 851
442T765 531T634 609L604 625Q574 640 494 688Q419 650 374 566T328 362Q328 297 355 229T448 113T619 65Q746 65 816 131Z" />
<glyph unicode="9" glyph-name="nine" horiz-adv-x="1159" d="M499 -195T638 -23T823 378Q769 318 700 281T523 243Q377 243 282 303T141 466T96 704Q96 844 153 958T318 1138T576 1205Q723 1205 834 1127T1004 922T1063 654Q1063 440 976 226T699 -149T224 -353L223
-261Q499 -195 638 -23ZM639 361T716 403T842 506Q851 590 851 704Q851 905 791 1007T580 1110Q479 1110 420 1062T337 925T313 704Q313 544 371 453T549 361Q639 361 716 403Z" />
<glyph unicode=":" glyph-name="colon" horiz-adv-x="640" d="M207 159T225 190T276 239T347 257Q386 257 418 239T469 190T488 122Q488 85 469 52T418 0T347 -20Q308 -20 276 -1T226 52T207 122Q207 159 225 190ZM207 897T225 928T276 977T347 995Q386 995 418
977T469 928T488 860Q488 823 469 790T418 738T347 718Q308 718 276 737T226 790T207 860Q207 897 225 928Z" />
<glyph unicode=";" glyph-name="semicolon" horiz-adv-x="640" d="M177 897T195 928T246 977T317 995Q356 995 388 977T439 928T458 860Q458 823 439 790T388 738T317 718Q278 718 246 737T196 790T177 860Q177 897 195 928ZM208 -360T195 -351T181 -325Q181 -315
186 -305T204 -281Q242 -239 262 -177T283 -63Q283 -25 275 -7Q228 2 196 31T163 120Q163 184 201 220T296 257Q366 257 410 205T454 52Q454 -34 419 -118T335 -264T252 -352Q241 -360 225 -360Q208 -360 195 -351Z" />
<glyph unicode="&lt;" glyph-name="less" horiz-adv-x="1317" d="M1088 945L318 554L1088 164V20L170 495V614L1088 1091V945Z" />
<glyph unicode="=" glyph-name="equal" horiz-adv-x="1317" d="M193 886H1124V740H193V886ZM193 368H1124V222H193V368Z" />
<glyph unicode="&gt;" glyph-name="greater" horiz-adv-x="1317" d="M1128 614V495L210 20V164L980 554L210 945V1091L1128 614Z" />
<glyph unicode="?" glyph-name="question" horiz-adv-x="980" d="M397 560T418 617T471 716T555 817Q607 874 638 916T691 1014T712 1141Q712 1261 660 1352T480 1443Q413 1443 363 1415T284 1347L244 1117Q239 1095 224 1087T177 1079Q154 1079 130 1092T88 1132T71
1199Q71 1238 89 1284Q112 1347 166 1402T305 1493T496 1528Q640 1528 733 1472T870 1328T913 1141Q913 1077 886 1020T819 916T712 804Q644 735 604 688T537 583T509 460V377H397V489Q397 560 418 617ZM420 -20T388 -1T338 52T319 122Q319 159 337 190T388 239T459
257Q498 257 530 239T581 190T600 122Q600 85 581 52T530 0T459 -20Q420 -20 388 -1Z" />
<glyph unicode="@" glyph-name="at" horiz-adv-x="1902" d="M752 -338T575 -269T274 -45T138 351Q136 395 136 417Q136 719 274 942T632 1281T1087 1398Q1255 1398 1405 1339T1656 1150T1766 822Q1767 807 1767 778Q1767 571 1672 415T1444 175T1207 92Q1123 92
1078 141T1027 259Q1010 219 971 182T885 123T799 100Q736 100 679 130T584 225T541 389Q540 400 540 423Q540 563 595 697T754 917T992 1003Q1046 1003 1087 977T1149 913T1171 838L1210 977H1402L1188 369Q1172 326 1172 284Q1172 221 1252 221Q1319 221 1413
291T1576 487T1645 772Q1644 784 1644 807Q1636 962 1554 1071T1344 1235T1073 1290Q841 1290 655 1173T363 854T257 412Q256 394 258 357Q270 129 389 -3T660 -186T945 -237Q1114 -237 1248 -177T1461 -30L1525 -92Q1437 -194 1295 -266T936 -338Q752 -338 575
-269ZM858 231T898 264T971 341T1013 416L1116 726L1117 744Q1116 797 1091 835T1002 874Q917 874 854 786T759 584T729 403Q733 321 751 276T821 231Q858 231 898 264Z" />
<glyph unicode="A" glyph-name="A" horiz-adv-x="1374" d="M1398 86T1405 80T1412 51Q1412 36 1403 18T1378 0H877Q862 0 853 18T843 51Q843 68 850 77T876 88L917 90Q968 91 990 96T1013 118Q1013 125 1010 132L889 494H409L287 132Q285 127 285 120Q285 102
307 97T382 90Q397 90 431 88Q450 86 457 77T464 51Q464 36 455 18T430 0H7Q-9 0 -18 15T-27 51Q-27 73 -20 79T9 88Q18 89 36 89Q68 90 89 94T130 114T162 165L620 1441H780L1225 165Q1237 131 1256 115T1296 95T1349 89Q1368 89 1376 88Q1398 86 1405 80ZM659
1187L440 580H861L659 1187Z" />
<glyph unicode="B" glyph-name="B" horiz-adv-x="1339" d="M1037 759T1147 676T1257 416Q1257 278 1182 184T988 45T742 0H100Q85 0 76 18T66 51Q66 68 73 77T99 88Q172 93 223 107T274 152L275 1234Q275 1274 247 1294T183 1320T93 1331Q71 1333 64 1339T57 1368Q57
1383 66 1401T91 1419H697Q904 1419 1038 1346T1172 1100Q1172 1011 1133 943T1028 834T884 776Q1037 759 1147 676ZM478 814H646Q778 814 866 878T955 1085Q955 1215 876 1274T660 1334H478V814ZM811 102T923 168T1035 421Q1035 560 968 625T817 704T619 718H478V139Q478
124 523 113T666 102Q811 102 923 168Z" />
<glyph unicode="C" glyph-name="C" horiz-adv-x="1315" d="M575 -30T420 41T165 277T65 706Q65 954 166 1122T421 1369T731 1449Q852 1449 941 1435T1081 1404T1189 1361L1211 1048Q1213 1032 1196 1020T1165 1008L1154 1007Q1123 1007 1119 1036Q1079 1177 985
1265T729 1353Q622 1353 534 1308T384 1119T322 706Q322 451 391 309T555 116T751 65Q910 65 997 152T1112 383Q1116 402 1124 409T1149 416Q1166 416 1188 407T1210 382L1178 108Q1176 91 1117 57T962 -3T752 -30Q575 -30 420 41Z" />
<glyph unicode="D" glyph-name="D" horiz-adv-x="1534" d="M125 0T116 18T106 51Q106 68 113 77T139 88Q199 93 241 107T284 152V1234Q284 1273 261 1293T211 1319T132 1331Q110 1333 103 1339T96 1368Q96 1383 105 1401T130 1419H726Q984 1418 1147 1324T1383
1076T1456 738Q1456 493 1354 327T1096 80T778 0H140Q125 0 116 18ZM496 141T541 121T704 101Q852 101 960 144T1139 327T1210 734Q1210 1068 1061 1195T694 1322H497L496 168Q496 141 541 121Z" />
<glyph unicode="E" glyph-name="E" horiz-adv-x="1338" d="M105 68T112 77T138 88Q198 93 241 107T284 152V1234Q284 1273 261 1293T211 1319T132 1331Q110 1333 103 1339T96 1368Q96 1383 105 1401T130 1419L1110 1420L1145 1095Q1146 1079 1134 1070T1108 1061Q1087
1061 1071 1067T1044 1094L1009 1161Q977 1225 957 1256T909 1304T838 1321L498 1320V778L732 779Q756 782 778 814T815 886T833 950Q837 982 879 982Q893 982 906 973T920 948V505Q920 489 907 480T879 471Q860 471 846 478T830 504Q828 529 813 572T775 649T726
683L498 682V197Q498 109 587 101L872 102Q967 102 1032 165T1132 374Q1136 391 1157 399T1200 407Q1220 407 1233 399T1249 373L1199 1L139 0Q124 0 115 18T105 51Q105 68 112 77Z" />
<glyph unicode="F" glyph-name="F" horiz-adv-x="1227" d="M124 0T115 18T105 51Q105 68 112 77T138 88Q211 93 262 107T313 152L314 1234Q314 1274 286 1294T222 1320T132 1331Q110 1333 103 1339T96 1368Q96 1383 105 1401T130 1419L1154 1418L1191 1070Q1191
1054 1178 1045T1150 1036Q1111 1036 1107 1069Q1104 1094 1072 1157T994 1270T899 1320H520V741H784Q808 744 828 777T862 850T879 916Q881 934 896 941T931 949Q945 949 958 940T972 915V472Q972 456 959 447T931 438Q912 438 897 445T879 471Q876 498 862 542T826
620T778 655H520V197Q520 139 590 114T742 88Q760 88 769 80T778 51Q778 36 769 18T744 0H139Q124 0 115 18Z" />
<glyph unicode="G" glyph-name="G" horiz-adv-x="1485" d="M601 -30T447 44T189 283T84 706Q84 963 191 1130T459 1373T783 1449Q901 1449 990 1435T1132 1403T1241 1361L1263 1051Q1265 1035 1253 1023T1227 1011L1216 1010Q1183 1010 1179 1039Q1140 1177 1041
1264T781 1353Q684 1354 583 1302T408 1105T333 706Q333 480 409 336T593 129T800 65Q943 65 1007 104T1072 199V456Q1072 496 1046 516T984 543T893 553Q871 555 864 561T857 590Q857 605 866 623T891 641H1406Q1421 641 1430 623T1440 590Q1440 573 1433 564T1407
553Q1352 548 1314 534T1275 489L1282 123Q1262 96 1196 60T1016 -3T754 -30Q601 -30 447 44Z" />
<glyph unicode="H" glyph-name="H" horiz-adv-x="1669" d="M1570 86T1577 80T1584 51Q1584 36 1575 18T1550 0H1048Q1033 0 1024 18T1014 51Q1014 68 1021 77T1047 88Q1107 93 1149 107T1192 152V688H477V185Q477 146 500 126T550 100T629 88Q651 86 658 80T665
51Q665 36 656 18T631 0H139Q124 0 115 18T105 51Q105 68 112 77T138 88Q273 99 273 152L274 1234Q274 1274 253 1294T206 1319T132 1331Q110 1333 103 1339T96 1368Q96 1383 105 1401T130 1419H622Q637 1419 646 1401T656 1368Q656 1351 649 1342T623 1331Q563
1326 521 1312T478 1267V796H1193V1234Q1193 1273 1170 1293T1120 1319T1041 1331Q1019 1333 1012 1339T1005 1368Q1005 1383 1014 1401T1039 1419H1541Q1556 1419 1565 1401T1575 1368Q1575 1351 1568 1342T1542 1331Q1482 1326 1440 1312T1397 1267L1396 185Q1396
146 1419 126T1469 100T1548 88Q1570 86 1577 80Z" />
<glyph unicode="I" glyph-name="I" horiz-adv-x="798" d="M136 0T127 18T117 51Q117 68 124 77T150 88Q210 93 252 107T295 152L296 1234Q296 1273 273 1293T223 1319T144 1331Q122 1333 115 1339T108 1368Q108 1383 117 1401T142 1419H647Q662 1419 671 1401T681
1368Q681 1351 674 1342T648 1331Q588 1326 546 1312T503 1267L502 185Q502 146 525 126T575 100T654 88Q676 86 683 80T690 51Q690 36 681 18T656 0H151Q136 0 127 18Z" />
<glyph unicode="J" glyph-name="J" horiz-adv-x="1060" d="M333 -30T262 -4T128 76Q84 119 64 171T44 278Q44 366 87 418T201 471Q230 471 252 461T275 439L231 113Q263 88 304 74T395 59Q504 59 564 143T624 406L625 1234Q625 1275 609 1295T566 1321T493 1331Q471
1333 464 1339T457 1368Q457 1383 466 1401T491 1419H956Q971 1419 980 1401T990 1368Q990 1351 983 1342T957 1331Q831 1320 831 1267V439Q831 259 761 155T594 10T404 -30Q333 -30 262 -4Z" />
<glyph unicode="K" glyph-name="K" horiz-adv-x="1422" d="M124 0T115 18T105 51Q105 68 112 77T138 88Q198 93 240 107T283 152L284 1234Q284 1273 261 1293T211 1319T132 1331Q110 1333 103 1339T96 1368Q96 1383 105 1401T130 1419H625Q640 1419 649 1401T659
1368Q659 1351 652 1342T626 1331Q491 1320 491 1267L490 185Q490 145 511 125T558 100T632 88Q654 86 661 80T668 51Q668 36 659 18T634 0H139Q124 0 115 18ZM1065 0T1006 83Q975 127 886 273Q805 406 751 488T638 633T531 701L995 1276Q1003 1285 1003 1293Q1003
1311 974 1317T889 1330Q871 1332 865 1341T858 1367Q858 1382 867 1400T892 1418H1343Q1358 1418 1367 1400T1377 1367Q1377 1330 1344 1330Q1294 1330 1241 1312T1147 1263L754 799Q813 759 891 658T1082 390Q1171 263 1201 222Q1238 173 1294 133T1387 89Q1423
85 1423 32Q1423 20 1414 10T1389 0H1113Q1065 0 1006 83Z" />
<glyph unicode="L" glyph-name="L" horiz-adv-x="1236" d="M124 0T115 18T105 51Q105 68 112 77T138 88Q273 99 273 152L274 1234Q274 1274 253 1294T206 1319T132 1331Q110 1333 103 1339T96 1368Q96 1383 105 1401T130 1419H643Q658 1419 667 1401T677 1368Q677
1331 644 1331Q581 1331 530 1309T478 1237L477 177Q477 132 506 117T582 101H867Q930 101 991 203T1097 440Q1108 473 1145 473Q1165 473 1176 465T1185 439L1136 1L139 0Q124 0 115 18Z" />
<glyph unicode="M" glyph-name="M" horiz-adv-x="1899" d="M109 0T100 18T90 51Q90 68 97 77T123 88Q177 91 212 98T272 125T298 184V1234Q298 1274 271 1294T207 1320T117 1331Q95 1333 88 1339T81 1368Q81 1383 90 1400T115 1419H612L969 366H981L1276 1246Q1295
1300 1308 1344T1329 1419H1773Q1788 1419 1797 1401T1807 1368Q1807 1351 1800 1342T1774 1331Q1714 1326 1672 1312T1629 1267L1628 185Q1628 146 1652 126T1703 100T1783 88Q1805 86 1812 80T1819 51Q1819 36 1810 18T1785 0H1272Q1257 0 1248 18T1238 51Q1238
68 1245 77T1271 88Q1333 93 1378 108T1424 152L1425 1281H1388L959 0H908L432 1281H395V185Q395 146 425 126T493 99T587 88Q609 86 616 80T623 51Q623 36 614 18T589 0H124Q109 0 100 18Z" />
<glyph unicode="N" glyph-name="N" horiz-adv-x="1571" d="M81 0T72 18T62 51Q62 68 69 77T95 88Q250 100 250 172V1234Q250 1273 225 1293T172 1319T89 1331Q67 1333 60 1339T53 1368Q53 1383 62 1401T87 1419H425L1202 313H1214V1234Q1214 1273 1185 1293T1126
1318T1034 1331Q1012 1333 1005 1339T998 1368Q998 1383 1007 1401T1032 1419H1487Q1502 1419 1511 1401T1521 1368Q1521 1351 1514 1342T1488 1331Q1480 1330 1429 1325T1346 1297T1313 1234V113Q1313 95 1316 75L1319 40Q1322 2 1304 -14T1259 -30Q1244 -30 1229
-24T1205 -8L366 1154H349V185Q349 146 376 126T432 101T519 88Q541 86 548 80T555 51Q555 36 546 18T521 0H96Q81 0 72 18Z" />
<glyph unicode="O" glyph-name="O" horiz-adv-x="1524" d="M555 -29T404 70T174 339T94 716Q94 922 175 1089T410 1352T769 1449Q974 1449 1123 1353T1351 1090T1430 716Q1430 509 1349 339T1116 70T759 -29Q555 -29 404 70ZM924 65T1015 141T1143 359T1180 714Q1180
926 1142 1066T1012 1281T758 1356Q596 1356 505 1282T378 1068T342 714Q342 501 379 360T509 142T763 65Q924 65 1015 141Z" />
<glyph unicode="P" glyph-name="P" horiz-adv-x="1249" d="M124 0T115 18T105 51Q105 68 112 77T138 88Q198 93 240 107T283 152L284 1234Q284 1273 261 1293T211 1319T132 1331Q110 1333 103 1339T96 1368Q96 1383 105 1401T130 1419H353Q417 1419 525 1425Q635
1431 705 1431Q831 1431 938 1389T1113 1252T1180 1010Q1180 878 1114 775T930 613T664 555H490V185Q490 146 521 126T593 99T692 88Q714 86 721 80T728 51Q728 36 719 18T694 0H139Q124 0 115 18ZM709 641T778 675T899 788T952 989Q952 1179 860 1260T628 1342H491L490
641H661Q709 641 778 675Z" />
<glyph unicode="Q" glyph-name="Q" horiz-adv-x="1524" d="M940 -148T1041 -236T1351 -324V-393Q1323 -405 1276 -415T1169 -426Q982 -426 842 -344T662 -23Q486 0 358 103T162 366T94 716Q94 922 175 1089T410 1352T769 1449Q974 1449 1123 1353T1351 1090T1430
716Q1430 537 1369 384T1191 127T914 -13Q940 -148 1041 -236ZM342 501T379 360T509 142T763 65Q924 65 1015 141T1143 359T1180 714Q1180 926 1142 1066T1012 1281T758 1356Q596 1356 505 1282T378 1068T342 714Q342 501 379 360Z" />
<glyph unicode="R" glyph-name="R" horiz-adv-x="1437" d="M115 0T106 18T96 51Q96 68 103 77T129 88Q189 93 231 107T274 152L275 1234Q275 1274 254 1294T207 1319T133 1331Q111 1333 104 1339T97 1368Q97 1383 106 1401T131 1419L317 1420Q403 1420 497 1424Q510
1425 557 1427T670 1428Q900 1426 1038 1337T1176 1050Q1176 745 854 658Q942 649 997 610T1083 517T1151 372Q1176 311 1192 276T1230 206Q1285 99 1381 89Q1402 87 1409 78T1417 46Q1417 32 1408 16T1383 0H1116Q1079 0 1051 33T1002 115T950 254Q909 372 875
446T787 572T655 625H477V185Q477 145 502 125T562 99T649 88Q671 86 678 80T685 51Q685 36 676 18T651 0H130Q115 0 106 18ZM959 711T959 1019Q959 1191 870 1261T623 1332H479L478 711H646Q959 711 959 1019Z" />
<glyph unicode="S" glyph-name="S" horiz-adv-x="1149" d="M538 -30T482 -12T372 35Q366 39 354 45L325 61Q305 73 295 77T273 82Q256 82 242 65Q225 44 206 34T171 24Q152 24 140 37T130 72Q132 99 132 155Q132 206 128 263T118 367Q110 449 110 469Q110 494
124 507T159 520Q178 520 192 509T212 478Q221 439 236 394T287 274Q321 202 375 154T491 82T609 59Q717 59 788 112T859 299Q859 399 774 475T543 626Q424 687 345 743T212 882T158 1081Q158 1206 220 1289T378 1410T572 1449Q646 1449 697 1438T799 1408Q829
1398 837 1398Q853 1398 861 1402T878 1413T894 1425Q905 1432 921 1432Q941 1432 958 1421T976 1394Q976 1349 980 1307T991 1203Q1002 1121 1002 1084Q1002 1055 987 1042T950 1028Q935 1028 921 1035T906 1051Q888 1155 842 1227T730 1334T589 1370Q351 1370
351 1129Q351 1069 394 1016T501 919T666 815Q674 810 681 806T695 798Q810 731 884 678T1011 547T1065 371Q1065 244 1007 154T850 17T626 -30Q538 -30 482 -12Z" />
<glyph unicode="T" glyph-name="T" horiz-adv-x="1267" d="M311 0T302 18T292 51Q292 68 299 77T325 88Q415 93 472 112T530 182L531 1320H277Q204 1320 170 1211T128 999Q126 980 117 973T91 966Q76 966 58 975T40 1000Q59 1419 75 1419H1193Q1203 1419 1213
1275T1227 1000Q1227 985 1209 976T1176 966Q1159 966 1150 973T1139 999Q1131 1102 1098 1211T991 1320H738L737 185Q737 145 768 125T839 99T939 88Q961 86 968 80T975 51Q975 36 966 18T941 0H326Q311 0 302 18Z" />
<glyph unicode="U" glyph-name="U" horiz-adv-x="1549" d="M1293 248T1159 110T781 -29Q604 -29 486 39T309 229T251 516L252 1234Q252 1274 231 1294T182 1321T110 1331Q88 1333 81 1339T74 1368Q74 1383 83 1401T108 1419H616Q631 1419 640 1401T650 1368Q650
1351 643 1342T617 1331Q553 1326 509 1312T464 1267L463 524Q463 290 542 178T785 65Q937 65 1024 120T1147 274T1183 514V1244Q1183 1287 1131 1305T1007 1331Q985 1333 978 1339T971 1368Q971 1383 980 1401T1005 1419H1470Q1485 1419 1494 1401T1504 1368Q1504
1351 1497 1342T1471 1331Q1390 1327 1343 1302T1296 1230L1294 516Q1293 248 1159 110Z" />
<glyph unicode="V" glyph-name="V" horiz-adv-x="1365" d="M147 1288T126 1304T82 1324T25 1330Q6 1330 -2 1331Q-24 1333 -31 1339T-38 1368Q-38 1383 -29 1401T-4 1419H521Q536 1419 545 1401T555 1368Q555 1351 548 1342T522 1331L481 1329Q428 1328 405 1323T381
1300Q381 1295 384 1287L750 232L1097 1257Q1099 1265 1099 1268Q1099 1296 1054 1311T939 1331Q920 1333 913 1342T906 1368Q906 1383 915 1401T940 1419H1395Q1410 1419 1419 1401T1429 1368Q1429 1346 1422 1340T1393 1331Q1385 1330 1366 1330Q1332 1329 1310
1325T1266 1304T1232 1254L767 -18H644L159 1254Q147 1288 126 1304Z" />
<glyph unicode="W" glyph-name="W" horiz-adv-x="1998" d="M170 1288T151 1304T111 1324T58 1330Q40 1330 32 1331Q10 1333 3 1339T-4 1368Q-4 1383 5 1401T30 1419H545Q560 1419 569 1401T579 1368Q579 1351 572 1342T546 1331Q512 1329 495 1329Q436 1327 411
1322T386 1298Q386 1295 388 1287L664 286L1001 1399H1109L1464 282L1733 1287Q1734 1290 1734 1295Q1734 1316 1705 1321T1612 1329Q1594 1329 1558 1331Q1539 1333 1532 1342T1525 1368Q1525 1383 1534 1401T1559 1419H2004Q2019 1419 2028 1401T2038 1368Q2038
1346 2031 1340T2002 1331Q1993 1330 1974 1330Q1942 1329 1921 1325T1881 1305T1851 1254L1478 -18H1355L1001 1046L675 -18H552L183 1254Q170 1288 151 1304Z" />
<glyph unicode="X" glyph-name="X" horiz-adv-x="1455" d="M32 0T23 18T13 51Q13 73 20 79T49 88L71 90Q130 93 174 107T250 165L599 686L240 1254Q211 1299 176 1312T90 1329L69 1331Q47 1333 40 1339T33 1368Q33 1383 42 1401T67 1419H592Q607 1419 616 1401T626
1368Q626 1351 619 1342T593 1331L563 1329Q507 1327 479 1322T450 1301Q450 1295 455 1287L724 859L978 1257Q985 1267 985 1278Q985 1300 951 1314T860 1331Q841 1333 834 1342T827 1368Q827 1383 836 1401T861 1419H1316Q1331 1419 1340 1401T1350 1368Q1350
1346 1343 1340T1314 1331L1293 1329Q1236 1326 1191 1312T1113 1254L770 766L1156 165Q1185 120 1222 107T1312 90L1334 88Q1356 86 1363 80T1370 51Q1370 36 1361 18T1336 0H779Q764 0 755 18T745 51Q745 68 752 77T778 88Q789 89 811 89Q877 92 909 97T941 119Q941
124 936 132L651 605L385 162Q376 149 376 137Q376 116 403 104T483 88Q502 86 509 77T516 51Q516 36 507 18T482 0H47Q32 0 23 18Z" />
<glyph unicode="Y" glyph-name="Y" horiz-adv-x="1260" d="M1284 1419T1293 1405T1303 1378Q1303 1356 1296 1350T1267 1341Q1228 1337 1207 1333T1162 1310T1116 1254L741 567V165Q741 132 759 117T803 97T872 90Q887 90 913 88Q938 85 948 79T959 51Q959 36
950 18T925 0H360Q345 0 336 18T326 51Q326 66 338 76T369 88L406 90Q468 91 501 102T534 152V534L143 1254Q122 1292 98 1310T53 1332T-8 1341Q-30 1343 -37 1349T-44 1378Q-44 1391 -35 1405T-10 1419H512Q528 1419 537 1406T546 1378Q546 1361 539 1352T513
1341Q436 1337 399 1330T361 1302Q361 1295 365 1287L678 655L1001 1287Q1005 1295 1005 1303Q1002 1323 965 1330T853 1341Q834 1343 827 1352T820 1378Q820 1392 829 1405T854 1419H1269Q1284 1419 1293 1405Z" />
<glyph unicode="Z" glyph-name="Z" horiz-adv-x="1232" d="M1144 463T1158 454T1171 429L1121 41Q1103 1 1074 0H89Q76 0 71 5T65 24V40Q65 50 73 67T107 123L812 1201L904 1336H399Q359 1336 313 1272T232 1128T192 1019Q190 1000 181 993T155 986Q142 986 133
995T124 1020L153 1378Q171 1418 200 1419H1142Q1155 1419 1160 1414T1166 1395V1368Q1166 1357 1156 1340L442 248L331 83H835Q875 83 933 154T1041 314T1093 430Q1095 449 1104 456T1130 463Q1144 463 1158 454Z" />
<glyph unicode="[" glyph-name="bracketleft" horiz-adv-x="768" d="M170 1535L612 1536V1439H359V-231H612V-328L170 -327V1535Z" />
<glyph unicode="\" glyph-name="backslash" horiz-adv-x="960" d="M661 -540H526L49 1500H186L661 -540Z" />
<glyph unicode="]" glyph-name="bracketright" horiz-adv-x="768" d="M156 -231H409V1439H156V1536L595 1535V-327L156 -328V-231Z" />
<glyph unicode="^" glyph-name="asciicircum" horiz-adv-x="1317" d="M1048 300L657 1270L277 300H123L598 1428H717L1194 300H1048Z" />
<glyph unicode="_" glyph-name="underscore" horiz-adv-x="1317" d="M-25 -190H1342V-296H-25V-190Z" />
<glyph unicode="`" glyph-name="grave" horiz-adv-x="1024" d="M656 1184T583 1237T426 1345Q419 1350 397 1364T367 1386Q349 1402 339 1423T328 1467Q328 1504 357 1534Q389 1567 429 1567Q453 1567 475 1557T514 1531Q528 1517 575 1452Q632 1373 684 1305T804
1159L748 1101Q656 1184 583 1237Z" />
<glyph unicode="a" glyph-name="a" horiz-adv-x="1032" d="M97 367T181 440T390 548T680 599V753Q680 795 661 833T595 898T474 924Q436 924 415 920T376 907L256 665Q196 665 163 692T129 781Q129 841 179 894T318 981T518 1014Q659 1014 736 969T841 852T869
689V201Q869 160 880 127T907 94Q922 94 932 95T960 102Q976 107 988 92T1000 59Q1000 48 994 43Q963 20 914 1T822 -19Q780 -19 758 -15T717 15T698 99V109Q632 40 557 10T377 -21Q311 -21 247 6T140 93T97 243Q97 367 181 440ZM306 206T323 170T373 112T449 90Q524
90 584 115T679 176V528Q548 509 472 484T351 403T306 248Q306 206 323 170Z" />
<glyph unicode="b" glyph-name="b" horiz-adv-x="1147" d="M170 -32T163 -22T155 12V1339Q155 1386 137 1410T93 1443T30 1458Q25 1459 14 1460T-4 1464Q-16 1469 -22 1478T-28 1504Q-28 1518 -22 1532T-4 1548Q162 1558 311 1558Q321 1558 330 1549T341 1518V1104L331
875Q381 936 464 974T625 1013Q772 1013 868 942T1010 752T1055 492Q1055 352 1005 233T853 42T603 -30Q385 -30 311 74Q285 32 249 0T190 -32Q170 -32 163 -22ZM717 65T778 178T840 492Q840 690 777 804T562 918Q505 918 440 886T341 808V170Q397 65 566 65Q717
65 778 178Z" />
<glyph unicode="c" glyph-name="c" horiz-adv-x="930" d="M368 -29T269 35T120 218T69 500Q69 658 130 774T299 952T541 1014Q639 1014 715 986T834 887Q877 816 877 757Q877 714 856 688T806 662Q773 662 756 670T724 710L640 897Q628 906 606 912T556 918Q284
918 284 490Q284 345 326 252T429 117T550 75Q627 75 689 110T784 208Q785 210 787 216T794 224T803 224L853 201Q864 196 864 188Q864 185 858 173Q812 80 724 26T512 -29Q368 -29 269 35Z" />
<glyph unicode="d" glyph-name="d" horiz-adv-x="1176" d="M375 -29T278 42T137 231T92 492Q92 633 141 751T293 942T547 1014Q738 1014 819 934L809 1104V1339Q809 1385 787 1410T734 1443T659 1458Q626 1462 620 1464Q608 1469 602 1478T596 1504Q596 1518 602
1532T620 1548Q786 1558 965 1558Q975 1558 984 1549T995 1518V175Q995 135 1011 115T1050 88T1107 78Q1129 76 1136 70T1143 41Q1143 28 1134 14T1109 0H885Q849 0 833 10T812 40T809 97Q757 41 677 6T525 -29Q375 -29 278 42ZM645 66T710 98T809 176V814Q753
919 584 919Q428 919 367 808T306 492Q306 293 369 180T588 66Q645 66 710 98Z" />
<glyph unicode="e" glyph-name="e" horiz-adv-x="990" d="M305 -29T187 109T69 500Q69 661 130 777T295 954T520 1014Q699 1014 790 925T910 669Q922 601 922 503H284Q285 353 324 257T425 118T558 75Q635 75 697 110T792 208Q793 210 795 215T801 223T811 224L861
201Q872 197 872 189Q872 185 866 173Q819 79 737 25T532 -29Q305 -29 187 109ZM700 760T651 839T519 918Q440 918 393 894T319 798T286 589L700 595Q700 760 651 839Z" />
<glyph unicode="f" glyph-name="f" horiz-adv-x="666" d="M81 0T72 13T63 41Q63 58 70 67T96 78Q203 91 203 142V907H80Q69 908 63 918T56 941Q56 974 80 984L202 994L203 1142Q204 1267 251 1365T379 1518T558 1573Q650 1573 700 1535T750 1441Q750 1404 732
1374T687 1326T642 1309Q634 1309 631 1312L522 1475Q493 1475 467 1462T415 1382T389 1174V994H599Q610 993 616 983T623 960Q623 941 617 927T599 907H389V175Q389 136 415 116T472 90T560 78Q582 76 589 70T596 41Q596 27 587 14T562 0H97Q81 0 72 13Z" />
<glyph unicode="g" glyph-name="g" horiz-adv-x="1043" d="M373 -480T272 -439T114 -327T57 -168Q57 -85 104 -37T221 32Q116 78 116 204Q116 245 136 287T190 361T261 404Q195 448 162 523T128 680Q128 774 172 850T298 970T491 1014Q572 1014 637 990T750 920Q777
967 819 994T913 1022Q977 1022 1013 979T1049 868Q1049 822 1026 794T973 766L868 931Q846 926 831 914T791 872Q847 790 847 680Q847 588 803 511T677 389T485 343Q371 343 326 365Q291 353 274 328T257 271Q257 219 295 190T395 160H621Q734 160 805 136T913
48T950 -131Q949 -220 898 -300T746 -430T503 -480Q373 -480 272 -439ZM584 439T621 504T659 682Q659 794 620 857T485 921Q389 921 352 858T314 682Q314 570 353 505T489 439Q584 439 621 504ZM587 -383T654 -363T770 -294T819 -162Q819 -86 762 -53T612 -19H389Q340
-19 289 -2Q267 -29 253 -63T239 -149Q239 -228 278 -280T382 -358T523 -383Q587 -383 654 -363Z" />
<glyph unicode="h" glyph-name="h" horiz-adv-x="1192" d="M58 0T49 13T40 41Q40 58 47 67T73 78Q189 92 189 142V1339Q189 1386 172 1411T132 1444T72 1458Q67 1459 57 1460T40 1464Q28 1469 22 1478T16 1504Q16 1518 22 1532T40 1548Q206 1558 345 1558Q355
1558 364 1549T375 1518V1104L365 845Q394 874 445 912T568 982T714 1014Q841 1014 915 962T990 766V175Q990 137 1007 117T1047 90T1106 80Q1113 80 1127 78Q1145 76 1152 69T1160 41Q1160 27 1151 14T1126 0H699Q683 0 674 13T665 41Q665 58 671 67T696 78Q733
81 767 98T802 142V795Q802 834 776 865T673 896Q588 896 507 857T375 771V175Q375 135 391 115T430 88T487 78Q509 76 516 70T523 41Q523 28 514 14T489 0H74Q58 0 49 13Z" />
<glyph unicode="i" glyph-name="i" horiz-adv-x="600" d="M88 0T79 13T70 41Q70 58 77 67T103 78Q218 92 218 142L219 778Q219 825 202 850T162 883T102 897Q97 898 87 899T70 903Q58 908 52 917T46 943Q46 957 52 971T70 987Q236 997 375 997Q385 997 394 988T405
957V175Q405 135 423 115T466 89T527 78Q549 76 556 70T563 41Q563 28 554 14T529 0H104Q88 0 79 13ZM255 1173T222 1212T188 1312Q188 1372 221 1411T309 1451Q363 1451 396 1412T430 1312Q430 1252 397 1213T309 1173Q255 1173 222 1212Z" />
<glyph unicode="j" glyph-name="j" horiz-adv-x="598" d="M28 -449T-11 -409T-51 -310Q-51 -275 -33 -250T10 -212T56 -199Q75 -199 85 -213T113 -266Q132 -310 152 -347Q185 -345 202 -309T225 -203T232 -16L233 778Q233 825 215 849T171 882T108 897Q103 898
92 899T74 903Q62 908 56 917T50 943Q50 957 56 971T74 987Q240 997 389 997Q399 997 408 988T419 957L418 16Q418 -192 348 -320T117 -449Q28 -449 -11 -409ZM248 1173T215 1212T181 1312Q181 1372 214 1411T302 1451Q356 1451 389 1412T423 1312Q423 1252 390
1213T302 1173Q248 1173 215 1212Z" />
<glyph unicode="k" glyph-name="k" horiz-adv-x="1097" d="M48 0T39 13T30 41Q30 58 37 67T63 78Q110 83 144 97T179 142V1339Q179 1386 162 1411T122 1444T62 1458Q57 1459 47 1460T30 1464Q18 1469 12 1478T6 1504Q6 1518 12 1532T30 1548Q155 1555 312 1558H335Q345
1558 354 1549T365 1518V469L725 842Q740 853 740 863Q740 882 699 892T609 906Q591 908 585 919T578 949Q578 963 587 978T612 994H1019Q1035 994 1044 979T1053 949Q1053 930 1045 918T1020 906Q945 906 833 819L654 626L670 598Q748 459 819 341T961 137Q1009
78 1054 78Q1071 78 1079 70T1087 41Q1087 27 1078 14T1053 0H789Q725 109 644 254T513 492L365 342V175Q365 135 381 115T420 88T477 78Q499 76 506 70T513 41Q513 28 504 14T479 0H64Q48 0 39 13Z" />
<glyph unicode="l" glyph-name="l" horiz-adv-x="586" d="M57 0T47 12T36 41Q36 58 43 67T69 78Q117 83 151 98T186 142L187 1339Q187 1386 169 1410T125 1443T60 1458Q55 1459 44 1460T26 1464Q14 1469 8 1478T2 1504Q2 1518 8 1532T26 1548Q149 1555 315 1558H341Q351
1558 360 1549T371 1518V175Q371 135 389 115T432 89T493 78Q514 76 521 69T529 44Q529 25 519 13T490 0H73Q57 0 47 12Z" />
<glyph unicode="m" glyph-name="m" horiz-adv-x="1804" d="M89 0T80 13T71 41Q71 58 78 67T104 78Q220 92 220 142V778Q220 825 203 849T163 882T103 897Q75 902 71 903Q59 908 53 917T47 943Q47 957 53 971T71 987Q232 997 366 997Q376 997 385 988T396 957V845Q453
902 541 958T734 1014Q840 1014 910 979T1001 850Q1029 880 1079 917T1197 984T1338 1014Q1465 1014 1539 962T1614 766V175Q1614 137 1631 117T1671 90T1730 80Q1737 80 1751 78Q1769 76 1776 69T1784 41Q1784 27 1775 14T1750 0H1323Q1307 0 1298 13T1289 41Q1289
58 1295 67T1320 78Q1357 81 1391 98T1426 142V795Q1426 834 1400 865T1297 896Q1152 896 1010 771V741V175Q1010 119 1038 102T1096 82T1137 78Q1155 76 1162 69T1170 41Q1170 27 1161 14T1136 0H719Q703 0 694 13T685 41Q685 58 691 67T716 78Q753 81 787 98T822
142V795Q822 834 796 865T693 896Q609 896 534 858T406 771V175Q406 135 422 115T461 88T518 78Q540 76 547 70T554 41Q554 28 545 14T520 0H105Q89 0 80 13Z" />
<glyph unicode="n" glyph-name="n" horiz-adv-x="1210" d="M87 0T78 13T69 41Q69 58 76 67T102 78Q218 92 218 142V778Q218 825 201 849T161 882T101 897Q73 902 69 903Q57 908 51 917T45 943Q45 957 51 971T69 987Q230 997 364 997Q374 997 383 988T394 957V845Q421
872 476 911T605 982T754 1014Q835 1014 892 994T984 920T1019 766V175Q1019 137 1036 117T1076 90T1135 80Q1142 80 1156 78Q1174 76 1181 69T1189 41Q1189 27 1180 14T1155 0H728Q712 0 703 13T694 41Q694 58 700 67T725 78Q762 81 796 98T831 142V795Q831 834
805 865T702 896Q617 896 536 857T404 771V175Q404 135 420 115T459 88T516 78Q538 76 545 70T552 41Q552 28 543 14T518 0H103Q87 0 78 13Z" />
<glyph unicode="o" glyph-name="o" horiz-adv-x="1104" d="M77 637T135 756T302 944T557 1014Q703 1014 809 945T971 757T1027 492Q1027 347 970 228T804 40T550 -29Q404 -29 297 40T134 227T77 492Q77 637 135 756ZM292 351T316 258T397 116T553 66Q651 66 707
115T787 258T810 492Q810 705 752 811T549 918Q451 918 395 869T315 726T292 492Q292 351 316 258Z" />
<glyph unicode="p" glyph-name="p" horiz-adv-x="1170" d="M45 -426T36 -412T26 -385Q26 -363 33 -357T62 -348Q98 -344 122 -338T165 -311T184 -251V778Q184 825 167 849T127 882T67 897Q39 902 35 903Q23 908 17 917T11 943Q11 957 17 971T35 987Q196 997 340
997Q350 997 359 988T370 957V894Q423 948 499 981T647 1014Q797 1014 893 943T1034 753T1078 492Q1078 351 1029 233T878 42T625 -30Q442 -30 360 43L370 -29V-284Q370 -314 421 -328T546 -348Q565 -350 572 -359T579 -385Q579 -399 570 -412T545 -426H60Q45 -426
36 -412ZM743 65T803 177T864 492Q864 693 802 805T584 918Q530 918 468 889T370 817V158Q429 65 588 65Q743 65 803 177Z" />
<glyph unicode="q" glyph-name="q" horiz-adv-x="1146" d="M636 -444T627 -431T618 -403Q618 -386 625 -377T651 -366Q807 -355 807 -302V-29L817 106Q766 46 684 8T525 -30Q375 -30 278 41T137 230T92 491Q92 632 141 750T293 941T547 1014Q756 1014 833 918Q877
956 915 978Q918 980 932 988T959 996Q978 996 985 988T993 963V-269Q993 -309 1011 -329T1052 -355T1115 -366Q1137 -368 1144 -374T1151 -403Q1151 -417 1142 -430T1117 -444H652Q636 -444 627 -431ZM645 65T709 96T807 172V817Q751 918 584 918Q428 918 367
805T306 491Q306 291 369 178T588 65Q645 65 709 96Z" />
<glyph unicode="r" glyph-name="r" horiz-adv-x="839" d="M103 0T94 13T85 41Q85 58 92 67T118 78Q234 89 234 142V778Q234 825 217 850T177 883T117 897Q112 898 102 899T85 903Q73 908 67 917T61 943Q61 957 68 971T85 987Q198 994 380 997Q390 997 399 988T410
957V818Q469 910 527 962T666 1014Q753 1014 784 975T816 873Q816 838 794 813T742 775T688 762L593 882Q564 882 530 859T467 798T420 716V175Q420 135 446 115T507 89T592 78Q614 76 621 70T628 41Q628 27 619 14T594 0H119Q103 0 94 13Z" />
<glyph unicode="s" glyph-name="s" horiz-adv-x="885" d="M381 -28T343 -20T263 2Q244 9 241 10Q199 23 181 23Q169 23 153 17Q139 10 122 10Q104 10 93 19T82 44Q82 98 74 206Q68 294 68 316Q68 338 78 348T102 359Q114 359 123 353T135 337Q136 332 142 310T162
255T199 178Q235 113 297 85T426 57Q517 57 575 95T633 201Q633 248 607 282T541 339T434 394Q390 414 368 425Q287 466 233 505T145 604T111 749Q111 833 161 893T288 983T440 1014Q495 1014 531 1007T607 986Q619 982 630 979T649 975Q664 975 669 980T678 994T684
1008Q696 1029 716 1029Q729 1029 739 1020T749 994Q749 982 748 971Q746 921 746 865Q746 836 748 809T750 771L752 743Q752 724 744 715T724 706Q714 706 705 710T694 722Q668 783 644 823T570 896T444 928Q363 928 320 893T276 795Q276 752 307 718T384 656T514
588Q613 541 673 503T774 411T814 283Q814 190 770 120T641 11T439 -28Q381 -28 343 -20Z" />
<glyph unicode="t" glyph-name="t" horiz-adv-x="707" d="M290 -30T230 30T169 223V907H54Q43 908 37 918T30 941Q30 960 37 972T58 984L67 985Q126 992 165 1019T232 1106T283 1268Q286 1282 296 1286T326 1291Q345 1291 350 1287T355 1267V994H650Q661 993 667
983T674 960Q674 939 666 923T646 907H355V296Q355 181 387 135T466 89Q509 89 541 95T594 110T655 138Q680 113 689 78Q670 58 625 33T525 -11T424 -30Q290 -30 230 30Z" />
<glyph unicode="u" glyph-name="u" horiz-adv-x="1178" d="M360 -27T282 36T203 270V819Q203 859 185 879T144 905T85 916Q63 918 56 924T49 953Q49 966 58 980T83 994H354Q391 994 391 958V261Q391 204 417 159T520 113Q618 113 681 139T795 220V819Q795 859
773 879T723 905T643 916Q621 918 614 924T607 953Q607 966 616 980T641 994H944Q981 994 981 958V210Q981 88 1022 88Q1043 88 1069 96Q1085 101 1097 86T1109 53Q1109 42 1103 37Q1094 27 1068 13T1001 -13T911 -25Q860 -25 831 12T795 131Q777 97 729 60T616
-2T489 -27Q360 -27 282 36Z" />
<glyph unicode="v" glyph-name="v" horiz-adv-x="1017" d="M96 876T69 894T2 916Q-20 918 -27 924T-34 953Q-34 966 -25 980T0 994H405Q421 994 430 981T439 953Q439 936 432 927T406 916Q368 911 349 908T315 893T300 862L565 250L808 862Q808 882 789 893T750
907T682 916Q663 918 656 927T649 953Q649 967 658 980T683 994H1018Q1033 994 1042 980T1052 953Q1052 931 1045 925T1016 916Q977 912 950 894T894 829L547 -9H473L124 829Q96 876 69 894Z" />
<glyph unicode="w" glyph-name="w" horiz-adv-x="1510" d="M80 876T53 894T-14 916Q-36 918 -43 924T-50 953Q-50 966 -41 980T-16 994H389Q405 994 414 981T423 953Q423 936 416 927T390 916Q352 911 333 908T299 893T284 862L499 275L729 976H825L1080 278L1281
862Q1281 882 1262 893T1223 907T1155 916Q1136 918 1129 927T1122 953Q1122 967 1131 980T1156 994H1481Q1496 994 1505 980T1515 953Q1515 931 1508 925T1479 916Q1442 912 1420 895T1367 829L1070 -9H996L731 711L488 -9H414L108 829Q80 876 53 894Z" />
<glyph unicode="x" glyph-name="x" horiz-adv-x="1034" d="M33 0T24 13T15 41Q15 78 48 78Q79 78 104 91T143 117T190 165L428 479L195 829Q159 873 128 892T58 916Q40 918 33 925T25 953Q25 967 34 980T59 994H446Q462 994 471 981T480 953Q480 935 474 927T449
916Q440 915 420 914T390 907T380 892Q380 885 393 862L544 592L707 848Q717 863 717 873Q717 906 631 916Q613 918 607 927T600 953Q600 967 609 980T634 994H957Q973 994 982 981T991 953Q991 916 958 916Q913 916 882 894T811 829L605 534L856 165Q896 117 918
100T977 78Q995 76 1002 69T1010 41Q1010 27 1001 14T976 0H605Q589 0 580 13T571 41Q571 59 577 67T602 78Q633 81 652 87T671 107Q671 118 658 132L484 408L294 146Q286 132 286 122Q286 101 310 92T370 78Q388 76 394 67T401 41Q401 27 392 14T367 0H49Q33 0
24 13Z" />
<glyph unicode="y" glyph-name="y" horiz-adv-x="1008" d="M199 -449T159 -433T94 -388T70 -326Q70 -284 84 -257T119 -217T156 -204L280 -326Q325 -317 372 -253T477 -28L139 829Q111 876 84 894T17 916Q-5 918 -12 924T-19 953Q-19 967 -10 980T14 994H427Q443
994 452 981T461 953Q461 936 454 927T428 916Q376 911 349 901T322 862L566 199L786 862Q786 882 769 893T733 907T670 916Q651 918 644 927T637 953Q637 967 646 980T671 994H1006Q1021 994 1030 980T1040 953Q1040 931 1033 925T1004 916Q967 912 945 895T892
829L589 -9Q545 -132 505 -219T399 -378T246 -449Q199 -449 159 -433Z" />
<glyph unicode="z" glyph-name="z" horiz-adv-x="909" d="M831 373T840 364T849 339L829 41Q829 23 814 12T782 0H71Q57 0 46 10T34 40Q34 55 42 70T76 123L552 821L622 911H289Q249 911 216 864T161 756T136 664Q134 645 125 638T99 631Q86 631 77 640T68 665L88
953Q88 970 103 981T135 994H813Q825 994 836 983T847 957Q847 939 840 924T821 891L344 193L256 83H613Q653 83 690 133T752 246T781 340Q783 359 792 366T818 373Q831 373 840 364Z" />
<glyph unicode="{" glyph-name="braceleft" horiz-adv-x="881" d="M611 -328T536 -298T411 -200T361 -29V358Q361 410 329 454T246 523T142 549H72V659H142Q195 659 246 684T329 754T361 850V1237Q361 1341 411 1408T536 1505T688 1536H821V1449H708Q657 1449
625 1424T577 1361T562 1280V883Q562 804 516 743T394 648T230 609V604Q313 596 389 559T514 460T562 325V-72Q562 -114 577 -152T624 -216T708 -241H821V-328H688Q611 -328 536 -298Z" />
<glyph unicode="|" glyph-name="bar" horiz-adv-x="768" d="M312 1535V-367H457V1535H312Z" />
<glyph unicode="}" glyph-name="braceright" horiz-adv-x="881" d="M60 -241H173Q224 -241 256 -216T304 -153T319 -72V325Q319 399 367 460T491 558T651 604V609Q564 613 488 647T365 743T319 883V1280Q319 1322 304 1360T257 1424T173 1449H60V1536H193Q270
1536 345 1506T470 1408T520 1237V850Q520 798 552 754T635 685T739 659H809V549H739Q686 549 635 524T552 454T520 358V-29Q520 -133 470 -200T345 -297T193 -328H60V-241Z" />
<glyph unicode="~" glyph-name="asciitilde" horiz-adv-x="1317" d="M801 425T758 440T652 486Q604 510 578 521Q507 556 448 556Q410 556 381 543T332 512T287 466Q273 449 264 440T246 428Q242 427 235 427Q219 427 208 439T196 468Q196 479 202 488Q234 543
254 573T301 630Q374 705 472 705Q525 705 566 690T668 644Q709 623 740 609Q811 574 870 574Q908 574 937 587T986 618T1031 664Q1045 681 1054 690T1072 702Q1076 703 1083 703Q1099 703 1110 691T1122 662Q1122 654 1116 642Q1079 570 1027 510Q995 473 948
449T856 425Q801 425 758 440Z" />
<glyph unicode="&#xa1;" glyph-name="exclamdown" horiz-adv-x="678" d="M369 1449T401 1430T452 1377T471 1307Q471 1270 452 1239T401 1190T330 1172Q291 1172 259 1190T209 1239T190 1307Q190 1344 208 1377T259 1429T330 1449Q369 1449 401 1430ZM370 997Q383
732 402 541T447 165Q450 144 455 100T461 40Q461 2 444 -30T396 -80T330 -99Q294 -99 264 -81T217 -30T199 40Q199 60 206 125T216 219Q259 599 290 997H370Z" />
<glyph unicode="&#xa2;" glyph-name="cent" horiz-adv-x="1137" d="M334 -4T238 134T141 500Q141 643 189 750T322 921T518 1006V1225H624V1014Q718 1012 791 984T906 887Q949 816 949 757Q949 714 928 688T878 662Q845 662 828 670T796 710L712 897Q700 906 678
912T628 918Q498 918 427 820T356 490Q356 344 395 251T493 117T610 75Q686 75 748 110T844 208Q845 210 847 215T853 223T863 224L913 201Q924 197 924 189Q924 185 918 173Q877 87 804 35T624 -27V-228H518V-25Q334 -4 238 134Z" />
<glyph unicode="&#xa3;" glyph-name="sterling" horiz-adv-x="1274" d="M731 -16T658 -2T536 32T426 80Q387 100 363 109T318 118H305Q286 78 247 39T150 0Q112 0 82 19T52 92Q52 146 106 174T241 223Q277 232 284 236Q318 310 318 473V679H119Q108 680 102 690T95
713Q95 732 101 746T119 766H318V871Q318 1448 808 1448Q914 1448 988 1408T1100 1313T1138 1218Q1138 1193 1115 1163T1058 1111T999 1089Q976 1089 966 1106L813 1356H774Q690 1356 636 1310T553 1157T524 873V766H808Q819 765 825 755T832 732Q832 713 826 699T808
679H525V603Q525 509 508 427T463 284T403 193Q435 184 465 171T522 145Q578 118 621 105T732 88Q816 84 876 108T968 174T1008 268L950 418Q951 428 965 443T1004 468T1055 479Q1101 479 1135 451T1187 376T1206 275Q1206 186 1152 120T1010 19T821 -16Q731 -16
658 -2Z" />
<glyph unicode="&#xa4;" glyph-name="currency" horiz-adv-x="1170" d="M261 377Q200 466 200 575Q200 683 261 772L100 936L225 1053L388 887Q479 939 588 939Q693 939 783 889L945 1053L1070 936L910 773Q970 683 970 575Q970 469 909 377L1070 213L945 97L783
262Q691 211 584 211Q476 211 387 261L225 97L100 213L261 377ZM639 364T682 387T751 459T777 575Q777 643 751 690T680 762T583 786Q530 786 487 763T418 691T392 575Q392 507 418 460T489 388T586 364Q639 364 682 387Z" />
<glyph unicode="&#xa5;" glyph-name="yen" horiz-adv-x="1259" d="M370 0T361 9T352 31Q352 48 359 57T385 68Q459 74 505 89T551 152V300H163Q152 301 146 319T139 354Q139 373 145 387T163 407H551V634H164Q153 635 147 653T140 688Q140 707 146 721T164 741H534L158
1254Q128 1309 87 1327T-8 1351Q-30 1353 -37 1359T-44 1388Q-44 1400 -35 1409T-10 1419H485Q501 1419 510 1410T519 1388Q519 1371 512 1362T486 1351Q418 1348 383 1338T348 1304Q348 1297 353 1287L675 798L1001 1287Q1006 1297 1006 1304Q1006 1326 972 1337T873
1351Q854 1353 847 1362T840 1388Q840 1400 849 1409T874 1419H1269Q1285 1419 1294 1410T1303 1388Q1303 1366 1296 1360T1267 1351Q1219 1346 1183 1328T1116 1254L754 741H1093Q1104 740 1110 730T1117 707Q1117 686 1110 662T1093 634H731V407H1092Q1103 406
1109 396T1116 373Q1116 352 1109 328T1092 300H731V165Q731 125 754 105T809 79T889 68Q911 66 918 60T925 31Q925 19 916 10T891 0H386Q370 0 361 9Z" />
<glyph unicode="&#xa6;" glyph-name="brokenbar" horiz-adv-x="768" d="M312 1535V765H457V1535H312ZM312 401V-369H457V401H312Z" />
<glyph unicode="&#xa7;" glyph-name="section" horiz-adv-x="1024" d="M383 -452T331 -421T254 -346T228 -262Q228 -228 246 -201T292 -157T342 -141L474 -376Q525 -373 566 -342T631 -260T654 -154Q654 -105 633 -68T578 0T473 83Q398 139 340 187T218 300Q108
412 108 550Q108 642 152 736T281 912Q213 1013 213 1111Q213 1209 262 1285T395 1404T584 1446Q658 1446 714 1415T799 1340T829 1256Q829 1223 809 1201T759 1167T703 1156L582 1371Q527 1368 478 1336T400 1252T370 1146Q370 1098 390 1061T445 993T550 910Q623
856 681 808T806 694Q916 584 916 444Q916 352 872 258T743 82Q811 -19 811 -120Q811 -217 765 -292T638 -410T457 -452Q383 -452 331 -421ZM741 257T741 304Q741 374 703 440T609 568Q589 590 473 708Q357 827 336 849Q288 737 288 690Q288 571 415 426Q466 373
554 286Q655 185 693 145Q741 257 741 304Z" />
<glyph unicode="&#xa8;" glyph-name="dieresis" horiz-adv-x="1024" d="M179 1445T207 1481T290 1518Q343 1518 372 1481T401 1384Q401 1324 372 1287T290 1250Q236 1250 208 1286T179 1384Q179 1445 207 1481ZM604 1445T632 1481T715 1518Q768 1518 797 1481T826
1384Q826 1324 797 1287T715 1250Q661 1250 633 1286T604 1384Q604 1445 632 1481Z" />
<glyph unicode="&#xa9;" glyph-name="copyright" horiz-adv-x="1929" d="M721 -281T516 -161T190 164T70 613Q70 856 190 1061T515 1387T964 1508Q1207 1508 1412 1388T1738 1062T1859 613Q1859 370 1739 165T1413 -161T964 -281Q721 -281 516 -161ZM1182 -201T1367
-91T1660 207T1769 613Q1769 832 1661 1019T1367 1317T964 1428Q746 1428 562 1317T269 1019T160 613Q160 394 268 207T561 -90T964 -201Q1182 -201 1367 -91ZM773 122T657 247T540 622Q540 784 601 892T768 1052T1012 1105Q1088 1105 1168 1077T1295 979Q1344
904 1344 844Q1344 807 1326 785T1281 763Q1248 763 1228 776T1196 807T1170 855Q1162 870 1151 909Q1143 935 1137 950T1121 976Q1104 991 1080 1002T1027 1013Q888 1013 806 925T723 612Q723 462 765 373T870 249T999 213Q1098 213 1170 256T1265 414Q1266 424
1268 429T1279 435L1351 436Q1362 436 1364 430T1367 412Q1363 313 1312 248T1179 153T1003 122Q773 122 657 247Z" />
<glyph unicode="&#xaa;" glyph-name="ordfeminine" horiz-adv-x="1024" d="M342 614T290 640T202 719T166 842Q166 936 242 999T427 1093T634 1124V1239Q634 1305 594 1341T477 1377Q440 1377 412 1366T372 1341L287 1180Q237 1180 207 1201T176 1256Q176 1316
228 1359T356 1425T502 1448Q596 1448 662 1421T761 1347T795 1239V791Q795 749 806 724T840 699Q862 699 884 705Q897 709 905 701T914 679Q914 664 910 660Q903 653 876 642T808 623T724 614Q686 614 669 633T650 671T647 716Q599 667 529 641T389 614Q342 614
290 640ZM503 710T535 720T586 743T633 778L634 1056Q510 1056 426 1007T341 853Q341 797 367 754T459 710Q503 710 535 720Z" />
<glyph unicode="&#xab;" glyph-name="guillemotleft" horiz-adv-x="1190" d="M570 895L325 554L570 214V70L117 495V614L570 1041V895ZM1076 895L811 554L1076 214V70L603 495V614L1076 1041V895Z" />
<glyph unicode="&#xac;" glyph-name="logicalnot" horiz-adv-x="1317" d="M982 496H190V622H1128V125H982V496Z" />
<glyph unicode="&#xad;" glyph-name="uni00AD" horiz-adv-x="766" d="M106 622H660V496H106V622Z" />
<glyph unicode="&#xae;" glyph-name="registered" horiz-adv-x="1929" d="M721 -281T516 -161T190 164T70 613Q70 856 190 1061T515 1387T964 1508Q1207 1508 1412 1388T1738 1062T1859 613Q1859 370 1739 165T1413 -161T964 -281Q721 -281 516 -161ZM1182 -201T1367
-91T1660 207T1769 613Q1769 832 1661 1019T1367 1317T964 1428Q746 1428 562 1317T269 1019T160 613Q160 394 268 207T561 -90T964 -201Q1182 -201 1367 -91ZM575 136T569 146T563 167Q563 179 568 189T584 201Q673 207 673 243V981Q673 1018 648 1029T580 1044Q566
1046 562 1050T557 1069Q557 1077 562 1083T579 1089H986Q1138 1088 1228 1032T1318 847Q1318 751 1253 696T1071 608Q1131 603 1169 574T1228 504T1275 398Q1291 356 1303 329T1330 278Q1350 239 1374 222T1426 201Q1440 199 1449 190T1459 167Q1459 158 1453
147T1437 136H1294Q1242 136 1209 167T1157 242T1117 361Q1097 430 1081 471T1036 540T963 568H829V264Q829 227 859 216T941 201Q954 200 959 191T965 167Q965 157 959 147T943 136H585Q575 136 569 146ZM1033 645T1097 682T1161 827Q1161 903 1132 943T1055 998T936
1012H829V645H931Q1033 645 1097 682Z" />
<glyph unicode="&#xaf;" glyph-name="overscore" horiz-adv-x="1317" d="M-5 1383H582V1242H-5V1383Z" />
<glyph unicode="&#xb0;" glyph-name="degree" horiz-adv-x="859" d="M90 1212T133 1288T255 1407T433 1450Q533 1450 609 1408T728 1289T770 1113Q770 1014 727 937T607 817T429 774Q329 774 252 817T133 937T90 1113Q90 1212 133 1288ZM232 1001T285 943T431
884Q522 884 575 942T628 1113Q628 1224 574 1282T428 1340Q336 1340 284 1283T232 1113Q232 1001 285 943Z" />
<glyph unicode="&#xb1;" glyph-name="plusminus" horiz-adv-x="1317" d="M215 126H587V496H195V622H587V1032H733V622H1122V496H733V126H1102V0H215V126Z" />
<glyph unicode="&#xb2;" glyph-name="uni00B2" horiz-adv-x="1024" d="M150 789T154 799T165 816Q298 902 409 1009T587 1235T654 1466Q654 1556 618 1615T490 1674Q422 1674 388 1651T345 1600L310 1485Q302 1458 289 1443T249 1428Q211 1428 178 1449T144 1516Q144
1544 158 1576Q175 1618 225 1655T347 1716T502 1739Q674 1739 766 1669T858 1466Q858 1368 796 1262T628 1060T401 900H872L865 757H149V779Q150 789 154 799Z" />
<glyph unicode="&#xb3;" glyph-name="uni00B3" horiz-adv-x="1024" d="M389 732T315 758T192 834T143 956Q143 991 159 1019T199 1062T246 1078Q280 1078 303 1060T323 1018Q319 994 285 881Q301 853 341 826T459 798Q563 798 621 854T679 1018Q679 1105 641 1149T551
1205T434 1218H380Q375 1218 373 1228T370 1256Q370 1296 380 1296H429Q474 1296 521 1318T601 1384T634 1488Q634 1558 599 1615T476 1673Q437 1673 413 1664T376 1640T348 1598Q343 1581 334 1540L322 1490Q306 1435 261 1435Q241 1435 219 1445T181 1475T166
1525Q166 1532 168 1546Q176 1600 222 1644T341 1713T496 1739Q597 1739 673 1711T790 1630T832 1500Q832 1434 795 1384T699 1303T579 1261Q709 1260 796 1206T883 1033Q883 943 832 875T686 770T467 732Q389 732 315 758Z" />
<glyph unicode="&#xb4;" glyph-name="acute" horiz-adv-x="1024" d="M354 1230T406 1298T515 1445Q562 1510 576 1524Q593 1540 615 1550T661 1560Q704 1560 733 1527Q761 1496 761 1461Q761 1417 723 1379Q712 1368 661 1335Q584 1286 509 1231T342 1094L286
1152Q354 1230 406 1298Z" />
<glyph unicode="&#xb5;" glyph-name="uni00B5" horiz-adv-x="1186" d="M952 161T969 136T1009 103T1069 89Q1074 88 1084 87T1101 83Q1113 78 1119 69T1125 43Q1125 30 1119 20T1101 9Q935 -1 796 -1Q786 -1 777 8T766 39V131Q752 97 713 60T623 -2T522 -27Q467
-27 434 -14T379 23T326 93L313 111Q354 -246 354 -307Q354 -368 325 -407T243 -446Q190 -446 161 -407T132 -307Q132 -292 135 -249T140 -176Q152 -19 159 105T166 358V986H354V301Q354 236 395 175T553 113Q620 113 668 152T766 260V986H952V208Q952 161 969
136Z" />
<glyph unicode="&#xb6;" glyph-name="paragraph" horiz-adv-x="1024" d="M193 -287T184 -269T174 -236Q174 -214 181 -208T210 -199Q256 -195 286 -189T339 -162T362 -102V576Q264 603 191 662T79 808T40 1000Q40 1148 101 1242T262 1379T482 1421L945 1419Q960
1419 969 1401T979 1368Q979 1346 972 1340T943 1331Q904 1328 879 1322T838 1295T821 1234V-135Q821 -165 864 -179T967 -199Q986 -201 993 -210T1000 -236Q1000 -251 991 -269T966 -287H684V1302H504V-287H208Q193 -287 184 -269Z" />
<glyph unicode="&#xb7;" glyph-name="middot" horiz-adv-x="572" d="M146 764T164 795T215 844T286 862Q325 862 357 844T408 795T427 727Q427 690 408 657T357 605T286 585Q247 585 215 604T165 657T146 727Q146 764 164 795Z" />
<glyph unicode="&#xb8;" glyph-name="cedilla" horiz-adv-x="478" d="M144 -488T97 -474T18 -439Q10 -433 10 -426Q10 -422 13 -417Q17 -408 45 -356Q50 -347 57 -347Q59 -347 67 -349Q70 -350 89 -357T134 -369T189 -374Q240 -374 273 -349T306 -281Q306 -241
266 -212T150 -182L183 18H300L264 -121Q361 -131 417 -178T473 -292Q473 -342 443 -387T352 -460T203 -488Q144 -488 97 -474Z" />
<glyph unicode="&#xb9;" glyph-name="uni00B9" horiz-adv-x="1024" d="M167 757T161 765T154 783Q154 826 180 827L212 830Q430 845 430 871L439 1589Q297 1480 190 1480Q176 1480 159 1509T141 1562Q141 1606 176 1608Q255 1614 352 1640T506 1725H631L622 892Q621
837 865 827Q880 826 886 821T892 802Q892 782 884 770T864 757H179Q167 757 161 765Z" />
<glyph unicode="&#xba;" glyph-name="ordmasculine" horiz-adv-x="1024" d="M391 612T303 667T169 818T122 1031Q122 1148 170 1243T307 1394T516 1450Q635 1450 722 1395T856 1244T902 1031Q902 914 855 819T720 668T511 612Q391 612 303 667ZM620 698T669 782T718
1031Q718 1194 668 1278T510 1363Q402 1363 353 1279T304 1031Q304 868 354 783T512 698Q620 698 669 782Z" />
<glyph unicode="&#xbb;" glyph-name="guillemotright" horiz-adv-x="1190" d="M607 614V495L134 70V214L399 554L134 895V1041L607 614ZM640 216L885 557L640 897V1041L1093 616V497L640 70V216Z" />
<glyph unicode="&#xbc;" glyph-name="onequarter" horiz-adv-x="2150" d="M362 504T356 512T349 530Q349 573 375 574L407 577Q625 592 625 618L634 1336Q492 1227 385 1227Q371 1227 354 1256T336 1309Q336 1353 371 1355Q450 1361 547 1387T701 1472H826L817
639Q816 584 1060 574Q1075 573 1081 568T1087 549Q1087 529 1079 517T1059 504H374Q362 504 356 512ZM1429 1413H1576L845 -6H700L1429 1413ZM1248 210Q1241 210 1234 224T1227 255Q1227 279 1238 298L1562 953Q1569 965 1591 973T1633 982Q1666 982 1696 964T1744
919T1763 873L1377 309H1768V568L1933 583V309H2137L2128 210H1933V0H1768V210H1248Z" />
<glyph unicode="&#xbd;" glyph-name="onehalf" horiz-adv-x="2150" d="M369 504T363 512T356 530Q356 573 382 574L414 577Q632 592 632 618L641 1336Q499 1227 392 1227Q378 1227 361 1256T343 1309Q343 1353 378 1355Q457 1361 554 1387T708 1472H833L824 639Q823
584 1067 574Q1082 573 1088 568T1094 549Q1094 529 1086 517T1066 504H381Q369 504 363 512ZM1347 1419H1494L763 0H618L1347 1419ZM1256 32T1260 42T1271 59Q1404 145 1515 252T1693 478T1760 709Q1760 799 1724 858T1596 917Q1528 917 1494 894T1451 843L1416
728Q1408 701 1395 686T1355 671Q1317 671 1284 692T1250 759Q1250 787 1264 819Q1281 861 1331 898T1453 959T1608 982Q1780 982 1872 912T1964 709Q1964 611 1902 505T1734 303T1507 143H1978L1971 0H1255V22Q1256 32 1260 42Z" />
<glyph unicode="&#xbe;" glyph-name="threequarters" horiz-adv-x="2150" d="M426 479T352 505T229 581T180 703Q180 738 196 766T236 809T283 825Q317 825 340 807T360 765Q356 741 322 628Q338 600 378 573T496 545Q600 545 658 601T716 765Q716 852 678 896T588
952T471 965H417Q412 965 410 975T407 1003Q407 1043 417 1043H466Q511 1043 558 1065T638 1131T671 1235Q671 1305 636 1362T513 1420Q474 1420 450 1411T413 1387T385 1345Q380 1328 371 1287L359 1237Q343 1182 298 1182Q278 1182 256 1192T218 1222T203 1272Q203
1279 205 1293Q213 1347 259 1391T378 1460T533 1486Q634 1486 710 1458T827 1377T869 1247Q869 1181 832 1131T736 1050T616 1008Q746 1007 833 953T920 780Q920 690 869 622T723 517T504 479Q426 479 352 505ZM1398 1419H1545L814 0H669L1398 1419ZM1285 210Q1278
210 1271 224T1264 255Q1264 279 1275 298L1599 953Q1606 965 1628 973T1670 982Q1703 982 1733 964T1781 919T1800 873L1414 309H1805V568L1970 583V309H2174L2165 210H1970V0H1805V210H1285Z" />
<glyph unicode="&#xbf;" glyph-name="questiondown" horiz-adv-x="980" d="M571 1450T603 1431T653 1378T672 1308Q672 1271 654 1240T603 1191T532 1173Q493 1173 461 1191T410 1240T391 1308Q391 1345 410 1378T461 1430T532 1450Q571 1450 603 1431ZM594 870T573
813T520 714T436 613Q384 556 353 514T300 416T279 289Q279 169 331 78T511 -13Q578 -13 628 15T707 83L747 313Q752 335 767 343T814 351Q837 351 861 338T903 298T920 231Q920 192 902 146Q879 83 825 28T686 -63T495 -98Q351 -98 258 -42T121 102T78 289Q78
353 105 410T172 514T279 626Q347 695 387 742T454 847T482 970V1053H594V941Q594 870 573 813Z" />
<glyph unicode="&#xc0;" glyph-name="Agrave" horiz-adv-x="1374" d="M1398 86T1405 80T1412 51Q1412 36 1403 18T1378 0H877Q862 0 853 18T843 51Q843 68 850 77T876 88L917 90Q968 91 990 96T1013 118Q1013 125 1010 132L889 494H409L287 132Q285 127 285 120Q285
102 307 97T382 90Q397 90 431 88Q450 86 457 77T464 51Q464 36 455 18T430 0H7Q-9 0 -18 15T-27 51Q-27 73 -20 79T9 88Q18 89 36 89Q68 90 89 94T130 114T162 165L620 1441H780L1225 165Q1237 131 1256 115T1296 95T1349 89Q1368 89 1376 88Q1398 86 1405 80ZM659
1187L440 580H861L659 1187ZM770 1611T694 1666T537 1774Q490 1805 483 1811Q465 1827 455 1848T444 1892Q444 1929 473 1959Q505 1992 545 1992Q569 1992 591 1982T630 1956Q644 1942 691 1877Q748 1798 800 1730T920 1584L864 1526Q770 1611 694 1666Z" />
<glyph unicode="&#xc1;" glyph-name="Aacute" horiz-adv-x="1374" d="M1398 86T1405 80T1412 51Q1412 36 1403 18T1378 0H877Q862 0 853 18T843 51Q843 68 850 77T876 88L917 90Q968 91 990 96T1013 118Q1013 125 1010 132L889 494H409L287 132Q285 127 285 120Q285
102 307 97T382 90Q397 90 431 88Q450 86 457 77T464 51Q464 36 455 18T430 0H7Q-9 0 -18 15T-27 51Q-27 73 -20 79T9 88Q18 89 36 89Q68 90 89 94T130 114T162 165L620 1441H780L1225 165Q1237 131 1256 115T1296 95T1349 89Q1368 89 1376 88Q1398 86 1405 80ZM659
1187L440 580H861L659 1187ZM598 1662T650 1730T759 1877Q806 1942 820 1956Q837 1972 859 1982T905 1992Q945 1992 977 1959Q1005 1928 1005 1893Q1005 1849 967 1811Q960 1804 938 1790T908 1770Q825 1716 752 1663T586 1526L530 1584Q598 1662 650 1730Z" />
<glyph unicode="&#xc2;" glyph-name="Acircumflex" horiz-adv-x="1374" d="M1398 86T1405 80T1412 51Q1412 36 1403 18T1378 0H877Q862 0 853 18T843 51Q843 68 850 77T876 88L917 90Q968 91 990 96T1013 118Q1013 125 1010 132L889 494H409L287 132Q285 127 285
120Q285 102 307 97T382 90Q397 90 431 88Q450 86 457 77T464 51Q464 36 455 18T430 0H7Q-9 0 -18 15T-27 51Q-27 73 -20 79T9 88Q18 89 36 89Q68 90 89 94T130 114T162 165L620 1441H780L1225 165Q1237 131 1256 115T1296 95T1349 89Q1368 89 1376 88Q1398 86
1405 80ZM659 1187L440 580H861L659 1187ZM606 1918T627 1931T682 1944Q716 1944 736 1929T777 1884L1022 1545H909L682 1766L460 1545H342L587 1893Q606 1918 627 1931Z" />
<glyph unicode="&#xc3;" glyph-name="Atilde" horiz-adv-x="1374" d="M1398 86T1405 80T1412 51Q1412 36 1403 18T1378 0H877Q862 0 853 18T843 51Q843 68 850 77T876 88L917 90Q968 91 990 96T1013 118Q1013 125 1010 132L889 494H409L287 132Q285 127 285 120Q285
102 307 97T382 90Q397 90 431 88Q450 86 457 77T464 51Q464 36 455 18T430 0H7Q-9 0 -18 15T-27 51Q-27 73 -20 79T9 88Q18 89 36 89Q68 90 89 94T130 114T162 165L620 1441H780L1225 165Q1237 131 1256 115T1296 95T1349 89Q1368 89 1376 88Q1398 86 1405 80ZM659
1187L440 580H861L659 1187ZM759 1533T724 1550T644 1599Q601 1628 573 1642T512 1656Q486 1656 466 1640T424 1594Q416 1583 408 1575T394 1566Q378 1566 363 1584T348 1624Q348 1652 377 1694T455 1768T559 1799Q597 1799 629 1783T709 1736Q755 1705 784 1691T848
1676Q874 1676 894 1693T936 1738Q945 1749 953 1757T966 1766Q982 1766 998 1748T1015 1708Q1015 1680 985 1638T905 1564T801 1533Q759 1533 724 1550Z" />
<glyph unicode="&#xc4;" glyph-name="Adieresis" horiz-adv-x="1374" d="M1398 86T1405 80T1412 51Q1412 36 1403 18T1378 0H877Q862 0 853 18T843 51Q843 68 850 77T876 88L917 90Q968 91 990 96T1013 118Q1013 125 1010 132L889 494H409L287 132Q285 127 285
120Q285 102 307 97T382 90Q397 90 431 88Q450 86 457 77T464 51Q464 36 455 18T430 0H7Q-9 0 -18 15T-27 51Q-27 73 -20 79T9 88Q18 89 36 89Q68 90 89 94T130 114T162 165L620 1441H780L1225 165Q1237 131 1256 115T1296 95T1349 89Q1368 89 1376 88Q1398 86
1405 80ZM659 1187L440 580H861L659 1187ZM416 1605T388 1641T359 1739Q359 1800 387 1836T470 1873Q523 1873 552 1836T581 1739Q581 1679 552 1642T470 1605Q416 1605 388 1641ZM840 1605T812 1641T783 1739Q783 1800 811 1836T894 1873Q947 1873 976 1836T1005
1739Q1005 1679 976 1642T894 1605Q840 1605 812 1641Z" />
<glyph unicode="&#xc5;" glyph-name="Aring" horiz-adv-x="1374" d="M1398 86T1405 80T1412 51Q1412 36 1403 18T1378 0H877Q862 0 853 18T843 51Q843 68 850 77T876 88L917 90Q968 91 990 96T1013 118Q1013 125 1010 132L889 494H409L287 132Q285 127 285 120Q285
102 307 97T382 90Q397 90 431 88Q450 86 457 77T464 51Q464 36 455 18T430 0H7Q-9 0 -18 15T-27 51Q-27 73 -20 79T9 88Q18 89 36 89Q68 90 89 94T130 114T162 165L610 1414Q517 1434 459 1501T400 1665Q400 1742 437 1800T539 1890T682 1922Q760 1922 824 1890T926
1798T964 1662Q964 1574 915 1512T786 1423L1225 165Q1237 131 1256 115T1296 95T1349 89Q1368 89 1376 88Q1398 86 1405 80ZM524 1597T562 1555T682 1512Q763 1512 802 1555T841 1666Q841 1733 802 1775T682 1818Q601 1818 563 1775T524 1664Q524 1597 562 1555ZM861
580L659 1187L440 580H861Z" />
<glyph unicode="&#xc6;" glyph-name="AE" horiz-adv-x="1988" d="M-78 0T-87 18T-97 51Q-97 71 -90 78T-61 88L-37 90Q-6 91 16 95T61 116T100 165L686 1318Q534 1325 453 1331Q434 1333 426 1343T417 1378Q417 1395 427 1407T451 1419L1732 1418L1767 1054Q1767
1038 1754 1029T1726 1020Q1708 1020 1695 1027T1679 1053Q1675 1083 1644 1149T1568 1268T1473 1320H1079L1078 743H1338Q1362 746 1382 779T1416 852T1433 918Q1435 935 1452 943T1490 951Q1504 951 1517 942T1531 917V474Q1531 458 1518 449T1490 440Q1470 440
1453 448T1433 473Q1430 500 1416 544T1380 622T1332 657H1078V197Q1078 146 1103 124T1167 101H1543Q1585 101 1635 164T1724 305T1767 413Q1769 431 1782 438T1814 446Q1828 446 1841 437T1855 412L1812 1L717 0Q702 0 693 18T683 51Q683 68 690 77T716 88Q779
93 825 108T871 152V657H475L234 142Q229 132 229 124Q229 107 270 99T388 88Q408 87 416 79T425 51Q425 32 415 16T391 0H-63Q-78 0 -87 18ZM872 1311Q866 1312 833 1312L794 1313L520 743H872V1311Z" />
<glyph unicode="&#xc7;" glyph-name="Ccedilla" horiz-adv-x="1315" d="M1166 416T1188 407T1210 382L1178 108Q1176 92 1122 60T979 2T784 -29L760 -121Q857 -131 913 -178T969 -292Q969 -342 939 -387T848 -460T699 -488Q640 -488 593 -474T514 -439Q506 -433
506 -426Q506 -422 509 -417Q513 -408 541 -356Q546 -347 553 -347Q555 -347 563 -349Q566 -350 585 -357T630 -369T685 -374Q736 -374 769 -349T802 -281Q802 -241 762 -212T646 -182L672 -26Q509 -11 373 66T151 303T65 706Q65 954 166 1122T421 1369T731 1449Q852
1449 941 1435T1081 1404T1189 1361L1211 1048Q1213 1032 1196 1020T1165 1008L1154 1007Q1123 1007 1119 1036Q1079 1177 985 1265T729 1353Q622 1353 534 1308T384 1119T322 706Q322 451 391 309T555 116T751 65Q910 65 997 152T1112 383Q1116 402 1124 409T1149
416Q1166 416 1188 407Z" />
<glyph unicode="&#xc8;" glyph-name="Egrave" horiz-adv-x="1338" d="M105 68T112 77T138 88Q198 93 241 107T284 152V1234Q284 1273 261 1293T211 1319T132 1331Q110 1333 103 1339T96 1368Q96 1383 105 1401T130 1419L1110 1420L1145 1095Q1146 1079 1134 1070T1108
1061Q1087 1061 1071 1067T1044 1094L1009 1161Q977 1225 957 1256T909 1304T838 1321L498 1320V778L732 779Q756 782 778 814T815 886T833 950Q837 982 879 982Q893 982 906 973T920 948V505Q920 489 907 480T879 471Q860 471 846 478T830 504Q828 529 813 572T775
649T726 683L498 682V197Q498 109 587 101L872 102Q967 102 1032 165T1132 374Q1136 391 1157 399T1200 407Q1220 407 1233 399T1249 373L1199 1L139 0Q124 0 115 18T105 51Q105 68 112 77ZM762 1611T686 1666T529 1774Q482 1805 475 1811Q457 1827 447 1848T436
1892Q436 1929 465 1959Q497 1992 537 1992Q561 1992 583 1982T622 1956Q636 1942 683 1877Q740 1798 792 1730T912 1584L856 1526Q762 1611 686 1666Z" />
<glyph unicode="&#xc9;" glyph-name="Eacute" horiz-adv-x="1338" d="M105 68T112 77T138 88Q198 93 241 107T284 152V1234Q284 1273 261 1293T211 1319T132 1331Q110 1333 103 1339T96 1368Q96 1383 105 1401T130 1419L1110 1420L1145 1095Q1146 1079 1134 1070T1108
1061Q1087 1061 1071 1067T1044 1094L1009 1161Q977 1225 957 1256T909 1304T838 1321L498 1320V778L732 779Q756 782 778 814T815 886T833 950Q837 982 879 982Q893 982 906 973T920 948V505Q920 489 907 480T879 471Q860 471 846 478T830 504Q828 529 813 572T775
649T726 683L498 682V197Q498 109 587 101L872 102Q967 102 1032 165T1132 374Q1136 391 1157 399T1200 407Q1220 407 1233 399T1249 373L1199 1L139 0Q124 0 115 18T105 51Q105 68 112 77ZM590 1662T642 1730T751 1877Q798 1942 812 1956Q829 1972 851 1982T897
1992Q937 1992 969 1959Q997 1928 997 1893Q997 1849 959 1811Q952 1804 930 1790T900 1770Q817 1716 744 1663T578 1526L522 1584Q590 1662 642 1730Z" />
<glyph unicode="&#xca;" glyph-name="Ecircumflex" horiz-adv-x="1338" d="M105 68T112 77T138 88Q198 93 241 107T284 152V1234Q284 1273 261 1293T211 1319T132 1331Q110 1333 103 1339T96 1368Q96 1383 105 1401T130 1419L1110 1420L1145 1095Q1146 1079 1134
1070T1108 1061Q1087 1061 1071 1067T1044 1094L1009 1161Q977 1225 957 1256T909 1304T838 1321L498 1320V778L732 779Q756 782 778 814T815 886T833 950Q837 982 879 982Q893 982 906 973T920 948V505Q920 489 907 480T879 471Q860 471 846 478T830 504Q828 529
813 572T775 649T726 683L498 682V197Q498 109 587 101L872 102Q967 102 1032 165T1132 374Q1136 391 1157 399T1200 407Q1220 407 1233 399T1249 373L1199 1L139 0Q124 0 115 18T105 51Q105 68 112 77ZM598 1918T619 1931T674 1944Q708 1944 728 1929T769 1884L1014
1545H901L674 1766L452 1545H334L579 1893Q598 1918 619 1931Z" />
<glyph unicode="&#xcb;" glyph-name="Edieresis" horiz-adv-x="1338" d="M105 68T112 77T138 88Q198 93 241 107T284 152V1234Q284 1273 261 1293T211 1319T132 1331Q110 1333 103 1339T96 1368Q96 1383 105 1401T130 1419L1110 1420L1145 1095Q1146 1079 1134
1070T1108 1061Q1087 1061 1071 1067T1044 1094L1009 1161Q977 1225 957 1256T909 1304T838 1321L498 1320V778L732 779Q756 782 778 814T815 886T833 950Q837 982 879 982Q893 982 906 973T920 948V505Q920 489 907 480T879 471Q860 471 846 478T830 504Q828 529
813 572T775 649T726 683L498 682V197Q498 109 587 101L872 102Q967 102 1032 165T1132 374Q1136 391 1157 399T1200 407Q1220 407 1233 399T1249 373L1199 1L139 0Q124 0 115 18T105 51Q105 68 112 77ZM408 1605T380 1641T351 1739Q351 1800 379 1836T462 1873Q515
1873 544 1836T573 1739Q573 1679 544 1642T462 1605Q408 1605 380 1641ZM832 1605T804 1641T775 1739Q775 1800 803 1836T886 1873Q939 1873 968 1836T997 1739Q997 1679 968 1642T886 1605Q832 1605 804 1641Z" />
<glyph unicode="&#xcc;" glyph-name="Igrave" horiz-adv-x="798" d="M136 0T127 18T117 51Q117 68 124 77T150 88Q210 93 252 107T295 152L296 1234Q296 1273 273 1293T223 1319T144 1331Q122 1333 115 1339T108 1368Q108 1383 117 1401T142 1419H647Q662 1419
671 1401T681 1368Q681 1351 674 1342T648 1331Q588 1326 546 1312T503 1267L502 185Q502 146 525 126T575 100T654 88Q676 86 683 80T690 51Q690 36 681 18T656 0H151Q136 0 127 18ZM485 1611T409 1666T252 1774Q205 1805 198 1811Q180 1827 170 1848T159 1892Q159
1929 188 1959Q220 1992 260 1992Q284 1992 306 1982T345 1956Q359 1942 406 1877Q463 1798 515 1730T635 1584L579 1526Q485 1611 409 1666Z" />
<glyph unicode="&#xcd;" glyph-name="Iacute" horiz-adv-x="798" d="M136 0T127 18T117 51Q117 68 124 77T150 88Q210 93 252 107T295 152L296 1234Q296 1273 273 1293T223 1319T144 1331Q122 1333 115 1339T108 1368Q108 1383 117 1401T142 1419H647Q662 1419
671 1401T681 1368Q681 1351 674 1342T648 1331Q588 1326 546 1312T503 1267L502 185Q502 146 525 126T575 100T654 88Q676 86 683 80T690 51Q690 36 681 18T656 0H151Q136 0 127 18ZM313 1662T365 1730T474 1877Q521 1942 535 1956Q552 1972 574 1982T620 1992Q660
1992 692 1959Q720 1928 720 1893Q720 1849 682 1811Q675 1804 653 1790T623 1770Q540 1716 467 1663T301 1526L245 1584Q313 1662 365 1730Z" />
<glyph unicode="&#xce;" glyph-name="Icircumflex" horiz-adv-x="798" d="M136 0T127 18T117 51Q117 68 124 77T150 88Q210 93 252 107T295 152L296 1234Q296 1273 273 1293T223 1319T144 1331Q122 1333 115 1339T108 1368Q108 1383 117 1401T142 1419H647Q662
1419 671 1401T681 1368Q681 1351 674 1342T648 1331Q588 1326 546 1312T503 1267L502 185Q502 146 525 126T575 100T654 88Q676 86 683 80T690 51Q690 36 681 18T656 0H151Q136 0 127 18ZM321 1918T342 1931T397 1944Q431 1944 451 1929T492 1884L737 1545H624L397
1766L175 1545H57L302 1893Q321 1918 342 1931Z" />
<glyph unicode="&#xcf;" glyph-name="Idieresis" horiz-adv-x="798" d="M136 0T127 18T117 51Q117 68 124 77T150 88Q210 93 252 107T295 152L296 1234Q296 1273 273 1293T223 1319T144 1331Q122 1333 115 1339T108 1368Q108 1383 117 1401T142 1419H647Q662 1419
671 1401T681 1368Q681 1351 674 1342T648 1331Q588 1326 546 1312T503 1267L502 185Q502 146 525 126T575 100T654 88Q676 86 683 80T690 51Q690 36 681 18T656 0H151Q136 0 127 18ZM131 1605T103 1641T74 1739Q74 1800 102 1836T185 1873Q238 1873 267 1836T296
1739Q296 1679 267 1642T185 1605Q131 1605 103 1641ZM555 1605T527 1641T498 1739Q498 1800 526 1836T609 1873Q662 1873 691 1836T720 1739Q720 1679 691 1642T609 1605Q555 1605 527 1641Z" />
<glyph unicode="&#xd0;" glyph-name="Eth" horiz-adv-x="1534" d="M983 1418T1146 1324T1382 1076T1455 738Q1455 493 1353 327T1095 80T777 0H139Q124 0 115 18T105 51Q105 68 112 77T138 88Q198 93 240 107T283 152V694H148Q137 695 131 705T124 728Q124 747
130 761T148 781H283V1234Q283 1273 260 1293T210 1319T131 1331Q109 1333 102 1339T95 1368Q95 1383 104 1401T129 1419H725Q983 1418 1146 1324ZM851 101T959 144T1138 327T1209 734Q1209 1068 1060 1195T693 1322H496V781H787Q798 780 804 770T811 747Q811 728
805 714T787 694H495V168Q495 141 540 121T703 101Q851 101 959 144Z" />
<glyph unicode="&#xd1;" glyph-name="Ntilde" horiz-adv-x="1571" d="M81 0T72 18T62 51Q62 68 69 77T95 88Q250 100 250 172V1234Q250 1273 225 1293T172 1319T89 1331Q67 1333 60 1339T53 1368Q53 1383 62 1401T87 1419H425L1202 313H1214V1234Q1214 1273 1185
1293T1126 1318T1034 1331Q1012 1333 1005 1339T998 1368Q998 1383 1007 1401T1032 1419H1487Q1502 1419 1511 1401T1521 1368Q1521 1351 1514 1342T1488 1331Q1480 1330 1429 1325T1346 1297T1313 1234V113Q1313 95 1316 75L1319 40Q1322 2 1304 -14T1259 -30Q1244
-30 1229 -24T1205 -8L366 1154H349V185Q349 146 376 126T432 101T519 88Q541 86 548 80T555 51Q555 36 546 18T521 0H96Q81 0 72 18ZM884 1533T849 1550T769 1599Q726 1628 698 1642T637 1656Q611 1656 591 1640T549 1594Q541 1583 533 1575T519 1566Q503 1566
488 1584T473 1624Q473 1652 502 1694T580 1768T684 1799Q722 1799 754 1783T834 1736Q880 1705 909 1691T973 1676Q999 1676 1019 1693T1061 1738Q1070 1749 1078 1757T1091 1766Q1107 1766 1123 1748T1140 1708Q1140 1680 1110 1638T1030 1564T926 1533Q884 1533
849 1550Z" />
<glyph unicode="&#xd2;" glyph-name="Ograve" horiz-adv-x="1524" d="M555 -29T404 70T174 339T94 716Q94 922 175 1089T410 1352T769 1449Q974 1449 1123 1353T1351 1090T1430 716Q1430 509 1349 339T1116 70T759 -29Q555 -29 404 70ZM924 65T1015 141T1143 359T1180
714Q1180 926 1142 1066T1012 1281T758 1356Q596 1356 505 1282T378 1068T342 714Q342 501 379 360T509 142T763 65Q924 65 1015 141ZM836 1611T760 1666T603 1774Q556 1805 549 1811Q531 1827 521 1848T510 1892Q510 1929 539 1959Q571 1992 611 1992Q635 1992
657 1982T696 1956Q710 1942 757 1877Q814 1798 866 1730T986 1584L930 1526Q836 1611 760 1666Z" />
<glyph unicode="&#xd3;" glyph-name="Oacute" horiz-adv-x="1524" d="M555 -29T404 70T174 339T94 716Q94 922 175 1089T410 1352T769 1449Q974 1449 1123 1353T1351 1090T1430 716Q1430 509 1349 339T1116 70T759 -29Q555 -29 404 70ZM924 65T1015 141T1143 359T1180
714Q1180 926 1142 1066T1012 1281T758 1356Q596 1356 505 1282T378 1068T342 714Q342 501 379 360T509 142T763 65Q924 65 1015 141ZM664 1662T716 1730T825 1877Q872 1942 886 1956Q903 1972 925 1982T971 1992Q1011 1992 1043 1959Q1071 1928 1071 1893Q1071
1849 1033 1811Q1026 1804 1004 1790T974 1770Q891 1716 818 1663T652 1526L596 1584Q664 1662 716 1730Z" />
<glyph unicode="&#xd4;" glyph-name="Ocircumflex" horiz-adv-x="1524" d="M555 -29T404 70T174 339T94 716Q94 922 175 1089T410 1352T769 1449Q974 1449 1123 1353T1351 1090T1430 716Q1430 509 1349 339T1116 70T759 -29Q555 -29 404 70ZM924 65T1015 141T1143
359T1180 714Q1180 926 1142 1066T1012 1281T758 1356Q596 1356 505 1282T378 1068T342 714Q342 501 379 360T509 142T763 65Q924 65 1015 141ZM672 1918T693 1931T748 1944Q782 1944 802 1929T843 1884L1088 1545H975L748 1766L526 1545H408L653 1893Q672 1918
693 1931Z" />
<glyph unicode="&#xd5;" glyph-name="Otilde" horiz-adv-x="1524" d="M555 -29T404 70T174 339T94 716Q94 922 175 1089T410 1352T769 1449Q974 1449 1123 1353T1351 1090T1430 716Q1430 509 1349 339T1116 70T759 -29Q555 -29 404 70ZM924 65T1015 141T1143 359T1180
714Q1180 926 1142 1066T1012 1281T758 1356Q596 1356 505 1282T378 1068T342 714Q342 501 379 360T509 142T763 65Q924 65 1015 141ZM825 1533T790 1550T710 1599Q667 1628 639 1642T578 1656Q552 1656 532 1640T490 1594Q482 1583 474 1575T460 1566Q444 1566
429 1584T414 1624Q414 1652 443 1694T521 1768T625 1799Q663 1799 695 1783T775 1736Q821 1705 850 1691T914 1676Q940 1676 960 1693T1002 1738Q1011 1749 1019 1757T1032 1766Q1048 1766 1064 1748T1081 1708Q1081 1680 1051 1638T971 1564T867 1533Q825 1533
790 1550Z" />
<glyph unicode="&#xd6;" glyph-name="Odieresis" horiz-adv-x="1524" d="M555 -29T404 70T174 339T94 716Q94 922 175 1089T410 1352T769 1449Q974 1449 1123 1353T1351 1090T1430 716Q1430 509 1349 339T1116 70T759 -29Q555 -29 404 70ZM924 65T1015 141T1143
359T1180 714Q1180 926 1142 1066T1012 1281T758 1356Q596 1356 505 1282T378 1068T342 714Q342 501 379 360T509 142T763 65Q924 65 1015 141ZM482 1605T454 1641T425 1739Q425 1800 453 1836T536 1873Q589 1873 618 1836T647 1739Q647 1679 618 1642T536 1605Q482
1605 454 1641ZM906 1605T878 1641T849 1739Q849 1800 877 1836T960 1873Q1013 1873 1042 1836T1071 1739Q1071 1679 1042 1642T960 1605Q906 1605 878 1641Z" />
<glyph unicode="&#xd7;" glyph-name="multiply" horiz-adv-x="1317" d="M195 208L555 573L195 939L297 1045L659 678L1020 1045L1122 939L762 573L1122 208L1020 103L659 469L297 103L195 208Z" />
<glyph unicode="&#xd8;" glyph-name="Oslash" horiz-adv-x="1524" d="M1281 1244T1355 1081T1430 716Q1430 509 1349 339T1116 70T759 -29Q606 -29 480 28L383 -164Q377 -171 366 -171Q348 -171 334 -162Q318 -152 309 -139T301 -114L396 75Q251 172 173 341T94
716Q94 922 175 1089T410 1352T769 1449Q929 1449 1060 1388L1154 1575Q1160 1584 1174 1584Q1186 1584 1196 1578Q1212 1569 1225 1553T1237 1525L1143 1340Q1281 1244 1355 1081ZM342 533T368 405T457 195L1007 1284Q912 1356 758 1356Q596 1356 505 1282T378
1068T342 714Q342 533 368 405ZM924 65T1015 141T1143 359T1180 714Q1180 883 1156 1006T1078 1210L530 127Q619 65 763 65Q924 65 1015 141Z" />
<glyph unicode="&#xd9;" glyph-name="Ugrave" horiz-adv-x="1549" d="M1293 248T1159 110T781 -29Q604 -29 486 39T309 229T251 516L252 1234Q252 1274 231 1294T182 1321T110 1331Q88 1333 81 1339T74 1368Q74 1383 83 1401T108 1419H616Q631 1419 640 1401T650
1368Q650 1351 643 1342T617 1331Q553 1326 509 1312T464 1267L463 524Q463 290 542 178T785 65Q937 65 1024 120T1147 274T1183 514V1244Q1183 1287 1131 1305T1007 1331Q985 1333 978 1339T971 1368Q971 1383 980 1401T1005 1419H1470Q1485 1419 1494 1401T1504
1368Q1504 1351 1497 1342T1471 1331Q1390 1327 1343 1302T1296 1230L1294 516Q1293 248 1159 110ZM901 1611T825 1666T668 1774Q621 1805 614 1811Q596 1827 586 1848T575 1892Q575 1929 604 1959Q636 1992 676 1992Q700 1992 722 1982T761 1956Q775 1942 822
1877Q879 1798 931 1730T1051 1584L995 1526Q901 1611 825 1666Z" />
<glyph unicode="&#xda;" glyph-name="Uacute" horiz-adv-x="1549" d="M1293 248T1159 110T781 -29Q604 -29 486 39T309 229T251 516L252 1234Q252 1274 231 1294T182 1321T110 1331Q88 1333 81 1339T74 1368Q74 1383 83 1401T108 1419H616Q631 1419 640 1401T650
1368Q650 1351 643 1342T617 1331Q553 1326 509 1312T464 1267L463 524Q463 290 542 178T785 65Q937 65 1024 120T1147 274T1183 514V1244Q1183 1287 1131 1305T1007 1331Q985 1333 978 1339T971 1368Q971 1383 980 1401T1005 1419H1470Q1485 1419 1494 1401T1504
1368Q1504 1351 1497 1342T1471 1331Q1390 1327 1343 1302T1296 1230L1294 516Q1293 248 1159 110ZM729 1662T781 1730T890 1877Q937 1942 951 1956Q968 1972 990 1982T1036 1992Q1076 1992 1108 1959Q1136 1928 1136 1893Q1136 1849 1098 1811Q1091 1804 1069
1790T1039 1770Q956 1716 883 1663T717 1526L661 1584Q729 1662 781 1730Z" />
<glyph unicode="&#xdb;" glyph-name="Ucircumflex" horiz-adv-x="1549" d="M1293 248T1159 110T781 -29Q604 -29 486 39T309 229T251 516L252 1234Q252 1274 231 1294T182 1321T110 1331Q88 1333 81 1339T74 1368Q74 1383 83 1401T108 1419H616Q631 1419 640 1401T650
1368Q650 1351 643 1342T617 1331Q553 1326 509 1312T464 1267L463 524Q463 290 542 178T785 65Q937 65 1024 120T1147 274T1183 514V1244Q1183 1287 1131 1305T1007 1331Q985 1333 978 1339T971 1368Q971 1383 980 1401T1005 1419H1470Q1485 1419 1494 1401T1504
1368Q1504 1351 1497 1342T1471 1331Q1390 1327 1343 1302T1296 1230L1294 516Q1293 248 1159 110ZM737 1918T758 1931T813 1944Q847 1944 867 1929T908 1884L1153 1545H1040L813 1766L591 1545H473L718 1893Q737 1918 758 1931Z" />
<glyph unicode="&#xdc;" glyph-name="Udieresis" horiz-adv-x="1549" d="M1293 248T1159 110T781 -29Q604 -29 486 39T309 229T251 516L252 1234Q252 1274 231 1294T182 1321T110 1331Q88 1333 81 1339T74 1368Q74 1383 83 1401T108 1419H616Q631 1419 640 1401T650
1368Q650 1351 643 1342T617 1331Q553 1326 509 1312T464 1267L463 524Q463 290 542 178T785 65Q937 65 1024 120T1147 274T1183 514V1244Q1183 1287 1131 1305T1007 1331Q985 1333 978 1339T971 1368Q971 1383 980 1401T1005 1419H1470Q1485 1419 1494 1401T1504
1368Q1504 1351 1497 1342T1471 1331Q1390 1327 1343 1302T1296 1230L1294 516Q1293 248 1159 110ZM547 1605T519 1641T490 1739Q490 1800 518 1836T601 1873Q654 1873 683 1836T712 1739Q712 1679 683 1642T601 1605Q547 1605 519 1641ZM971 1605T943 1641T914
1739Q914 1800 942 1836T1025 1873Q1078 1873 1107 1836T1136 1739Q1136 1679 1107 1642T1025 1605Q971 1605 943 1641Z" />
<glyph unicode="&#xdd;" glyph-name="Yacute" horiz-adv-x="1260" d="M1284 1419T1293 1405T1303 1378Q1303 1356 1296 1350T1267 1341Q1228 1337 1207 1333T1162 1310T1116 1254L741 567V165Q741 132 759 117T803 97T872 90Q887 90 913 88Q938 85 948 79T959
51Q959 36 950 18T925 0H360Q345 0 336 18T326 51Q326 66 338 76T369 88L406 90Q468 91 501 102T534 152V534L143 1254Q122 1292 98 1310T53 1332T-8 1341Q-30 1343 -37 1349T-44 1378Q-44 1391 -35 1405T-10 1419H512Q528 1419 537 1406T546 1378Q546 1361 539
1352T513 1341Q436 1337 399 1330T361 1302Q361 1295 365 1287L678 655L1001 1287Q1005 1295 1005 1303Q1002 1323 965 1330T853 1341Q834 1343 827 1352T820 1378Q820 1392 829 1405T854 1419H1269Q1284 1419 1293 1405ZM560 1662T612 1730T721 1877Q768 1942
782 1956Q799 1972 821 1982T867 1992Q907 1992 939 1959Q967 1928 967 1893Q967 1849 929 1811Q922 1804 900 1790T870 1770Q787 1716 714 1663T548 1526L492 1584Q560 1662 612 1730Z" />
<glyph unicode="&#xde;" glyph-name="Thorn" horiz-adv-x="1258" d="M124 0T115 18T105 51Q105 68 112 77T138 88Q198 93 240 107T283 152L284 1234Q284 1274 261 1294T207 1320T132 1331Q110 1333 103 1339T96 1368Q96 1383 105 1401T130 1419H635Q650 1419 659
1401T669 1368Q669 1351 662 1342T636 1331Q576 1326 534 1312T491 1267V1153L740 1155Q938 1155 1065 1060T1192 754Q1192 624 1131 523T959 366T699 309H490V185Q490 146 524 126T597 99T692 88Q714 86 721 80T728 51Q728 36 719 18T694 0H139Q124 0 115 18ZM743
395T808 428T922 538T971 733Q971 919 885 997T663 1076H491L490 395H696Q743 395 808 428Z" />
<glyph unicode="&#xdf;" glyph-name="germandbls" horiz-adv-x="1123" d="M37 0T28 18T18 51Q18 68 25 77T51 88Q95 93 121 107T147 152V1061Q147 1192 201 1306T359 1489T605 1559Q693 1559 768 1531T889 1444T935 1296Q935 1234 915 1192T867 1126T792 1073Q754
1049 734 1032T699 990T684 928Q684 902 710 870T794 785Q870 712 920 654T1008 516T1046 344Q1046 241 1006 156T892 21T720 -29Q628 -29 567 -3T476 66T447 156Q447 200 482 231T576 263L643 89Q653 75 671 65T714 55Q773 55 815 111T857 294Q857 359 833 412T775
506T683 603Q629 657 598 693T545 776T523 878Q523 920 537 952T570 1006T626 1063Q665 1098 688 1125T728 1193T744 1288Q744 1374 698 1424T576 1474Q512 1474 461 1451T371 1343T333 1093V0H52Q37 0 28 18Z" />
<glyph unicode="&#xe0;" glyph-name="agrave" horiz-adv-x="1032" d="M97 367T181 440T390 548T680 599V753Q680 795 661 833T595 898T474 924Q436 924 415 920T376 907L256 665Q196 665 163 692T129 781Q129 841 179 894T318 981T518 1014Q659 1014 736 969T841
852T869 689V201Q869 160 880 127T907 94Q922 94 932 95T960 102Q976 107 988 92T1000 59Q1000 48 994 43Q963 20 914 1T822 -19Q780 -19 758 -15T717 15T698 99V109Q632 40 557 10T377 -21Q311 -21 247 6T140 93T97 243Q97 367 181 440ZM306 206T323 170T373 112T449
90Q524 90 584 115T679 176V528Q548 509 472 484T351 403T306 248Q306 206 323 170ZM500 1181T424 1236T267 1344Q220 1375 213 1381Q195 1397 185 1418T174 1462Q174 1499 203 1529Q235 1562 275 1562Q299 1562 321 1552T360 1526Q374 1512 421 1447Q478 1368
530 1300T650 1154L594 1096Q500 1181 424 1236Z" />
<glyph unicode="&#xe1;" glyph-name="aacute" horiz-adv-x="1032" d="M97 367T181 440T390 548T680 599V753Q680 795 661 833T595 898T474 924Q436 924 415 920T376 907L256 665Q196 665 163 692T129 781Q129 841 179 894T318 981T518 1014Q659 1014 736 969T841
852T869 689V201Q869 160 880 127T907 94Q922 94 932 95T960 102Q976 107 988 92T1000 59Q1000 48 994 43Q963 20 914 1T822 -19Q780 -19 758 -15T717 15T698 99V109Q632 40 557 10T377 -21Q311 -21 247 6T140 93T97 243Q97 367 181 440ZM306 206T323 170T373 112T449
90Q524 90 584 115T679 176V528Q548 509 472 484T351 403T306 248Q306 206 323 170ZM407 1230T459 1298T568 1445Q615 1510 629 1524Q646 1540 668 1550T714 1560Q757 1560 786 1527Q814 1496 814 1461Q814 1417 776 1379Q765 1368 714 1335Q637 1286 562 1231T395
1094L339 1152Q407 1230 459 1298Z" />
<glyph unicode="&#xe2;" glyph-name="acircumflex" horiz-adv-x="1032" d="M97 367T181 440T390 548T680 599V753Q680 795 661 833T595 898T474 924Q436 924 415 920T376 907L256 665Q196 665 163 692T129 781Q129 841 179 894T318 981T518 1014Q659 1014 736
969T841 852T869 689V201Q869 160 880 127T907 94Q922 94 932 95T960 102Q976 107 988 92T1000 59Q1000 48 994 43Q963 20 914 1T822 -19Q780 -19 758 -15T717 15T698 99V109Q632 40 557 10T377 -21Q311 -21 247 6T140 93T97 243Q97 367 181 440ZM306 206T323 170T373
112T449 90Q524 90 584 115T679 176V528Q548 509 472 484T351 403T306 248Q306 206 323 170ZM421 1523T442 1536T497 1549Q531 1549 551 1534T592 1489L837 1110H724L497 1371L275 1110H157L402 1498Q421 1523 442 1536Z" />
<glyph unicode="&#xe3;" glyph-name="atilde" horiz-adv-x="1032" d="M97 367T181 440T390 548T680 599V753Q680 795 661 833T595 898T474 924Q436 924 415 920T376 907L256 665Q196 665 163 692T129 781Q129 841 179 894T318 981T518 1014Q659 1014 736 969T841
852T869 689V201Q869 160 880 127T907 94Q922 94 932 95T960 102Q976 107 988 92T1000 59Q1000 48 994 43Q963 20 914 1T822 -19Q780 -19 758 -15T717 15T698 99V109Q632 40 557 10T377 -21Q311 -21 247 6T140 93T97 243Q97 367 181 440ZM306 206T323 170T373 112T449
90Q524 90 584 115T679 176V528Q548 509 472 484T351 403T306 248Q306 206 323 170ZM579 1117T542 1135T453 1188Q408 1219 377 1234T311 1250Q283 1250 263 1233T216 1184Q204 1168 197 1161T183 1153Q165 1153 149 1172T133 1216Q133 1246 165 1292T250 1371T362
1405Q403 1405 439 1388T524 1337Q571 1305 604 1289T675 1272Q703 1272 724 1290T771 1339Q794 1369 803 1369Q821 1369 838 1349T856 1306Q856 1276 823 1230T737 1151T624 1117Q579 1117 542 1135Z" />
<glyph unicode="&#xe4;" glyph-name="adieresis" horiz-adv-x="1032" d="M97 367T181 440T390 548T680 599V753Q680 795 661 833T595 898T474 924Q436 924 415 920T376 907L256 665Q196 665 163 692T129 781Q129 841 179 894T318 981T518 1014Q659 1014 736 969T841
852T869 689V201Q869 160 880 127T907 94Q922 94 932 95T960 102Q976 107 988 92T1000 59Q1000 48 994 43Q963 20 914 1T822 -19Q780 -19 758 -15T717 15T698 99V109Q632 40 557 10T377 -21Q311 -21 247 6T140 93T97 243Q97 367 181 440ZM306 206T323 170T373 112T449
90Q524 90 584 115T679 176V528Q548 509 472 484T351 403T306 248Q306 206 323 170ZM231 1182T203 1218T174 1316Q174 1377 202 1413T285 1450Q338 1450 367 1413T396 1316Q396 1256 367 1219T285 1182Q231 1182 203 1218ZM655 1182T627 1218T598 1316Q598 1377
626 1413T709 1450Q762 1450 791 1413T820 1316Q820 1256 791 1219T709 1182Q655 1182 627 1218Z" />
<glyph unicode="&#xe5;" glyph-name="aring" horiz-adv-x="1032" d="M97 367T181 440T390 548T680 599V753Q680 795 661 833T595 898T474 924Q436 924 415 920T376 907L256 665Q196 665 163 692T129 781Q129 841 179 894T318 981T518 1014Q659 1014 736 969T841
852T869 689V201Q869 160 880 127T907 94Q922 94 932 95T960 102Q976 107 988 92T1000 59Q1000 48 994 43Q963 20 914 1T822 -19Q780 -19 758 -15T717 15T698 99V109Q632 40 557 10T377 -21Q311 -21 247 6T140 93T97 243Q97 367 181 440ZM306 206T323 170T373 112T449
90Q524 90 584 115T679 176V528Q548 509 472 484T351 403T306 248Q306 206 323 170ZM419 1122T355 1154T253 1244T215 1380Q215 1457 252 1515T354 1605T497 1637Q575 1637 639 1605T741 1513T779 1377Q779 1300 742 1242T640 1153T497 1122Q419 1122 355 1154ZM578
1227T617 1270T656 1381Q656 1448 617 1490T497 1533Q416 1533 378 1490T339 1379Q339 1312 377 1270T497 1227Q578 1227 617 1270Z" />
<glyph unicode="&#xe6;" glyph-name="ae" horiz-adv-x="1509" d="M312 -24T249 4T144 92T101 243Q101 412 251 491T637 599V758Q637 835 593 879T472 924Q418 924 346 913L220 665Q161 665 129 697T97 781Q97 845 159 898T321 982T523 1013Q605 1013 667 985T769
904Q827 958 900 986T1051 1014Q1243 1014 1332 913T1436 627Q1441 560 1441 503H821Q822 353 859 257T955 118T1079 75Q1156 75 1218 110T1313 208Q1314 210 1316 215T1322 223T1332 224L1382 201Q1393 197 1393 189Q1393 185 1387 173Q1340 79 1258 25T1053 -29Q824
-29 712 126Q650 50 567 13T374 -24Q312 -24 249 4ZM1219 762T1175 840T1050 918Q978 918 932 894T857 797T823 589L1219 595Q1219 762 1175 840ZM559 90T636 141L637 523Q489 502 400 443T311 252Q311 212 327 175T373 114T446 90Q559 90 636 141Z" />
<glyph unicode="&#xe7;" glyph-name="ccedilla" horiz-adv-x="930" d="M864 196T864 188Q864 185 858 173Q814 86 733 33T540 -28L516 -121Q613 -131 669 -178T725 -292Q725 -342 695 -387T604 -460T455 -488Q396 -488 349 -474T270 -439Q262 -433 262 -426Q262
-422 265 -417Q269 -408 297 -356Q302 -347 309 -347Q311 -347 319 -349Q322 -350 341 -357T386 -369T441 -374Q492 -374 525 -349T558 -281Q558 -241 518 -212T402 -182L428 -23Q253 4 161 141T69 500Q69 658 130 774T299 952T541 1014Q639 1014 715 986T834 887Q877
816 877 757Q877 714 856 688T806 662Q773 662 756 670T724 710L640 897Q628 906 606 912T556 918Q284 918 284 490Q284 345 326 252T429 117T550 75Q627 75 689 110T784 208Q785 210 787 216T794 224T803 224L853 201Q864 196 864 188Z" />
<glyph unicode="&#xe8;" glyph-name="egrave" horiz-adv-x="990" d="M305 -29T187 109T69 500Q69 661 130 777T295 954T520 1014Q699 1014 790 925T910 669Q922 601 922 503H284Q285 353 324 257T425 118T558 75Q635 75 697 110T792 208Q793 210 795 215T801 223T811
224L861 201Q872 197 872 189Q872 185 866 173Q819 79 737 25T532 -29Q305 -29 187 109ZM700 760T651 839T519 918Q440 918 393 894T319 798T286 589L700 595Q700 760 651 839ZM523 1181T447 1236T290 1344Q243 1375 236 1381Q218 1397 208 1418T197 1462Q197 1499
226 1529Q258 1562 298 1562Q322 1562 344 1552T383 1526Q397 1512 444 1447Q501 1368 553 1300T673 1154L617 1096Q523 1181 447 1236Z" />
<glyph unicode="&#xe9;" glyph-name="eacute" horiz-adv-x="990" d="M305 -29T187 109T69 500Q69 661 130 777T295 954T520 1014Q699 1014 790 925T910 669Q922 601 922 503H284Q285 353 324 257T425 118T558 75Q635 75 697 110T792 208Q793 210 795 215T801 223T811
224L861 201Q872 197 872 189Q872 185 866 173Q819 79 737 25T532 -29Q305 -29 187 109ZM700 760T651 839T519 918Q440 918 393 894T319 798T286 589L700 595Q700 760 651 839ZM430 1230T482 1298T591 1445Q638 1510 652 1524Q669 1540 691 1550T737 1560Q780 1560
809 1527Q837 1496 837 1461Q837 1417 799 1379Q788 1368 737 1335Q660 1286 585 1231T418 1094L362 1152Q430 1230 482 1298Z" />
<glyph unicode="&#xea;" glyph-name="ecircumflex" horiz-adv-x="990" d="M305 -29T187 109T69 500Q69 661 130 777T295 954T520 1014Q699 1014 790 925T910 669Q922 601 922 503H284Q285 353 324 257T425 118T558 75Q635 75 697 110T792 208Q793 210 795 215T801
223T811 224L861 201Q872 197 872 189Q872 185 866 173Q819 79 737 25T532 -29Q305 -29 187 109ZM700 760T651 839T519 918Q440 918 393 894T319 798T286 589L700 595Q700 760 651 839ZM444 1523T465 1536T520 1549Q554 1549 574 1534T615 1489L860 1110H747L520
1371L298 1110H180L425 1498Q444 1523 465 1536Z" />
<glyph unicode="&#xeb;" glyph-name="edieresis" horiz-adv-x="990" d="M305 -29T187 109T69 500Q69 661 130 777T295 954T520 1014Q699 1014 790 925T910 669Q922 601 922 503H284Q285 353 324 257T425 118T558 75Q635 75 697 110T792 208Q793 210 795 215T801
223T811 224L861 201Q872 197 872 189Q872 185 866 173Q819 79 737 25T532 -29Q305 -29 187 109ZM700 760T651 839T519 918Q440 918 393 894T319 798T286 589L700 595Q700 760 651 839ZM254 1182T226 1218T197 1316Q197 1377 225 1413T308 1450Q361 1450 390 1413T419
1316Q419 1256 390 1219T308 1182Q254 1182 226 1218ZM678 1182T650 1218T621 1316Q621 1377 649 1413T732 1450Q785 1450 814 1413T843 1316Q843 1256 814 1219T732 1182Q678 1182 650 1218Z" />
<glyph unicode="&#xec;" glyph-name="igrave" horiz-adv-x="600" d="M88 0T79 13T70 41Q70 58 77 67T103 78Q218 92 218 142L219 778Q219 825 202 850T162 883T102 897Q97 898 87 899T70 903Q58 908 52 917T46 943Q46 957 52 971T70 987Q236 997 375 997Q385 997
394 988T405 957V175Q405 135 423 115T466 89T527 78Q549 76 556 70T563 41Q563 28 554 14T529 0H104Q88 0 79 13ZM312 1181T236 1236T79 1344Q32 1375 25 1381Q7 1397 -3 1418T-14 1462Q-14 1499 15 1529Q47 1562 87 1562Q111 1562 133 1552T172 1526Q186 1512
233 1447Q290 1368 342 1300T462 1154L406 1096Q312 1181 236 1236Z" />
<glyph unicode="&#xed;" glyph-name="iacute" horiz-adv-x="600" d="M88 0T79 13T70 41Q70 58 77 67T103 78Q218 92 218 142L219 778Q219 825 202 850T162 883T102 897Q97 898 87 899T70 903Q58 908 52 917T46 943Q46 957 52 971T70 987Q236 997 375 997Q385 997
394 988T405 957V175Q405 135 423 115T466 89T527 78Q549 76 556 70T563 41Q563 28 554 14T529 0H104Q88 0 79 13ZM219 1230T271 1298T380 1445Q427 1510 441 1524Q458 1540 480 1550T526 1560Q569 1560 598 1527Q626 1496 626 1461Q626 1417 588 1379Q577 1368
526 1335Q449 1286 374 1231T207 1094L151 1152Q219 1230 271 1298Z" />
<glyph unicode="&#xee;" glyph-name="icircumflex" horiz-adv-x="600" d="M88 0T79 13T70 41Q70 58 77 67T103 78Q218 92 218 142L219 778Q219 825 202 850T162 883T102 897Q97 898 87 899T70 903Q58 908 52 917T46 943Q46 957 52 971T70 987Q236 997 375 997Q385
997 394 988T405 957V175Q405 135 423 115T466 89T527 78Q549 76 556 70T563 41Q563 28 554 14T529 0H104Q88 0 79 13ZM233 1523T254 1536T309 1549Q343 1549 363 1534T404 1489L649 1110H536L309 1371L87 1110H-31L214 1498Q233 1523 254 1536Z" />
<glyph unicode="&#xef;" glyph-name="idieresis" horiz-adv-x="600" d="M88 0T79 13T70 41Q70 58 77 67T103 78Q218 92 218 142L219 778Q219 825 202 850T162 883T102 897Q97 898 87 899T70 903Q58 908 52 917T46 943Q46 957 52 971T70 987Q236 997 375 997Q385
997 394 988T405 957V175Q405 135 423 115T466 89T527 78Q549 76 556 70T563 41Q563 28 554 14T529 0H104Q88 0 79 13ZM43 1182T15 1218T-14 1316Q-14 1377 14 1413T97 1450Q150 1450 179 1413T208 1316Q208 1256 179 1219T97 1182Q43 1182 15 1218ZM467 1182T439
1218T410 1316Q410 1377 438 1413T521 1450Q574 1450 603 1413T632 1316Q632 1256 603 1219T521 1182Q467 1182 439 1218Z" />
<glyph unicode="&#xf0;" glyph-name="eth" horiz-adv-x="1089" d="M70 606T125 724T282 911T521 980Q583 980 660 954T771 889Q747 1010 672 1134T509 1344L309 1184Q302 1179 292 1186T275 1204Q262 1228 262 1247Q262 1255 265 1261L441 1401Q340 1471 213 1491Q206
1492 202 1505T198 1535Q198 1550 201 1562Q207 1583 213 1592T230 1602Q314 1595 398 1565T558 1489L738 1630Q743 1634 749 1634Q761 1634 770 1618Q777 1606 781 1591T785 1565Q785 1559 783 1553L633 1438Q753 1328 836 1185T960 893T1001 611Q1001 433 951
291T797 64T538 -20Q399 -20 293 41T129 211T70 460Q70 606 125 724ZM281 341T311 254T399 121T535 75Q641 75 695 142T765 316T782 585V590Q782 698 762 760T688 851T534 880Q446 879 389 818T307 663T281 462Q281 341 311 254Z" />
<glyph unicode="&#xf1;" glyph-name="ntilde" horiz-adv-x="1210" d="M87 0T78 13T69 41Q69 58 76 67T102 78Q218 92 218 142V778Q218 825 201 849T161 882T101 897Q73 902 69 903Q57 908 51 917T45 943Q45 957 51 971T69 987Q230 997 364 997Q374 997 383 988T394
957V845Q421 872 476 911T605 982T754 1014Q835 1014 892 994T984 920T1019 766V175Q1019 137 1036 117T1076 90T1135 80Q1142 80 1156 78Q1174 76 1181 69T1189 41Q1189 27 1180 14T1155 0H728Q712 0 703 13T694 41Q694 58 700 67T725 78Q762 81 796 98T831 142V795Q831
834 805 865T702 896Q617 896 536 857T404 771V175Q404 135 420 115T459 88T516 78Q538 76 545 70T552 41Q552 28 543 14T518 0H103Q87 0 78 13ZM704 1117T667 1135T578 1188Q533 1219 502 1234T436 1250Q408 1250 388 1233T341 1184Q329 1168 322 1161T308 1153Q290
1153 274 1172T258 1216Q258 1246 290 1292T375 1371T487 1405Q528 1405 564 1388T649 1337Q696 1305 729 1289T800 1272Q828 1272 849 1290T896 1339Q919 1369 928 1369Q946 1369 963 1349T981 1306Q981 1276 948 1230T862 1151T749 1117Q704 1117 667 1135Z"
/>
<glyph unicode="&#xf2;" glyph-name="ograve" horiz-adv-x="1104" d="M77 637T135 756T302 944T557 1014Q703 1014 809 945T971 757T1027 492Q1027 347 970 228T804 40T550 -29Q404 -29 297 40T134 227T77 492Q77 637 135 756ZM292 351T316 258T397 116T553 66Q651
66 707 115T787 258T810 492Q810 705 752 811T549 918Q451 918 395 869T315 726T292 492Q292 351 316 258ZM548 1181T472 1236T315 1344Q268 1375 261 1381Q243 1397 233 1418T222 1462Q222 1499 251 1529Q283 1562 323 1562Q347 1562 369 1552T408 1526Q422 1512
469 1447Q526 1368 578 1300T698 1154L642 1096Q548 1181 472 1236Z" />
<glyph unicode="&#xf3;" glyph-name="oacute" horiz-adv-x="1104" d="M77 637T135 756T302 944T557 1014Q703 1014 809 945T971 757T1027 492Q1027 347 970 228T804 40T550 -29Q404 -29 297 40T134 227T77 492Q77 637 135 756ZM292 351T316 258T397 116T553 66Q651
66 707 115T787 258T810 492Q810 705 752 811T549 918Q451 918 395 869T315 726T292 492Q292 351 316 258ZM455 1230T507 1298T616 1445Q663 1510 677 1524Q694 1540 716 1550T762 1560Q805 1560 834 1527Q862 1496 862 1461Q862 1417 824 1379Q813 1368 762 1335Q685
1286 610 1231T443 1094L387 1152Q455 1230 507 1298Z" />
<glyph unicode="&#xf4;" glyph-name="ocircumflex" horiz-adv-x="1104" d="M77 637T135 756T302 944T557 1014Q703 1014 809 945T971 757T1027 492Q1027 347 970 228T804 40T550 -29Q404 -29 297 40T134 227T77 492Q77 637 135 756ZM292 351T316 258T397 116T553
66Q651 66 707 115T787 258T810 492Q810 705 752 811T549 918Q451 918 395 869T315 726T292 492Q292 351 316 258ZM469 1523T490 1536T545 1549Q579 1549 599 1534T640 1489L885 1110H772L545 1371L323 1110H205L450 1498Q469 1523 490 1536Z" />
<glyph unicode="&#xf5;" glyph-name="otilde" horiz-adv-x="1104" d="M77 637T135 756T302 944T557 1014Q703 1014 809 945T971 757T1027 492Q1027 347 970 228T804 40T550 -29Q404 -29 297 40T134 227T77 492Q77 637 135 756ZM292 351T316 258T397 116T553 66Q651
66 707 115T787 258T810 492Q810 705 752 811T549 918Q451 918 395 869T315 726T292 492Q292 351 316 258ZM627 1117T590 1135T501 1188Q456 1219 425 1234T359 1250Q331 1250 311 1233T264 1184Q252 1168 245 1161T231 1153Q213 1153 197 1172T181 1216Q181 1246
213 1292T298 1371T410 1405Q451 1405 487 1388T572 1337Q619 1305 652 1289T723 1272Q751 1272 772 1290T819 1339Q842 1369 851 1369Q869 1369 886 1349T904 1306Q904 1276 871 1230T785 1151T672 1117Q627 1117 590 1135Z" />
<glyph unicode="&#xf6;" glyph-name="odieresis" horiz-adv-x="1104" d="M77 637T135 756T302 944T557 1014Q703 1014 809 945T971 757T1027 492Q1027 347 970 228T804 40T550 -29Q404 -29 297 40T134 227T77 492Q77 637 135 756ZM292 351T316 258T397 116T553
66Q651 66 707 115T787 258T810 492Q810 705 752 811T549 918Q451 918 395 869T315 726T292 492Q292 351 316 258ZM279 1182T251 1218T222 1316Q222 1377 250 1413T333 1450Q386 1450 415 1413T444 1316Q444 1256 415 1219T333 1182Q279 1182 251 1218ZM703 1182T675
1218T646 1316Q646 1377 674 1413T757 1450Q810 1450 839 1413T868 1316Q868 1256 839 1219T757 1182Q703 1182 675 1218Z" />
<glyph unicode="&#xf7;" glyph-name="divide" horiz-adv-x="1317" d="M580 996T598 1027T649 1076T720 1094Q759 1094 791 1076T842 1027T861 959Q861 922 842 889T791 837T720 817Q681 817 649 836T599 889T580 959Q580 996 598 1027ZM261 622H1188V496H261V622ZM580
203T598 234T649 283T720 301Q759 301 791 283T842 234T861 166Q861 129 842 96T791 44T720 24Q681 24 649 43T599 96T580 166Q580 203 598 234Z" />
<glyph unicode="&#xf8;" glyph-name="oslash" horiz-adv-x="1104" d="M923 862T975 747T1027 492Q1027 347 970 228T804 40T550 -29Q433 -29 340 16L266 -122Q260 -129 249 -129Q231 -129 217 -120Q201 -110 192 -97T184 -72L258 68Q171 138 124 249T77 492Q77
637 135 756T302 944T557 1014Q657 1014 743 978L813 1109Q819 1118 833 1118Q844 1118 855 1112Q871 1103 884 1087T896 1059L828 931Q923 862 975 747ZM289 304T332 206L691 880Q635 918 549 918Q451 918 394 869T313 726T289 492Q289 304 332 206ZM697 66T755
172T814 492Q814 702 759 802L394 118Q454 66 553 66Q697 66 755 172Z" />
<glyph unicode="&#xf9;" glyph-name="ugrave" horiz-adv-x="1178" d="M360 -27T282 36T203 270V819Q203 859 185 879T144 905T85 916Q63 918 56 924T49 953Q49 966 58 980T83 994H354Q391 994 391 958V261Q391 204 417 159T520 113Q618 113 681 139T795 220V819Q795
859 773 879T723 905T643 916Q621 918 614 924T607 953Q607 966 616 980T641 994H944Q981 994 981 958V210Q981 88 1022 88Q1043 88 1069 96Q1085 101 1097 86T1109 53Q1109 42 1103 37Q1094 27 1068 13T1001 -13T911 -25Q860 -25 831 12T795 131Q777 97 729 60T616
-2T489 -27Q360 -27 282 36ZM584 1181T508 1236T351 1344Q304 1375 297 1381Q279 1397 269 1418T258 1462Q258 1499 287 1529Q319 1562 359 1562Q383 1562 405 1552T444 1526Q458 1512 505 1447Q562 1368 614 1300T734 1154L678 1096Q584 1181 508 1236Z" />
<glyph unicode="&#xfa;" glyph-name="uacute" horiz-adv-x="1178" d="M360 -27T282 36T203 270V819Q203 859 185 879T144 905T85 916Q63 918 56 924T49 953Q49 966 58 980T83 994H354Q391 994 391 958V261Q391 204 417 159T520 113Q618 113 681 139T795 220V819Q795
859 773 879T723 905T643 916Q621 918 614 924T607 953Q607 966 616 980T641 994H944Q981 994 981 958V210Q981 88 1022 88Q1043 88 1069 96Q1085 101 1097 86T1109 53Q1109 42 1103 37Q1094 27 1068 13T1001 -13T911 -25Q860 -25 831 12T795 131Q777 97 729 60T616
-2T489 -27Q360 -27 282 36ZM491 1230T543 1298T652 1445Q699 1510 713 1524Q730 1540 752 1550T798 1560Q841 1560 870 1527Q898 1496 898 1461Q898 1417 860 1379Q849 1368 798 1335Q721 1286 646 1231T479 1094L423 1152Q491 1230 543 1298Z" />
<glyph unicode="&#xfb;" glyph-name="ucircumflex" horiz-adv-x="1178" d="M360 -27T282 36T203 270V819Q203 859 185 879T144 905T85 916Q63 918 56 924T49 953Q49 966 58 980T83 994H354Q391 994 391 958V261Q391 204 417 159T520 113Q618 113 681 139T795 220V819Q795
859 773 879T723 905T643 916Q621 918 614 924T607 953Q607 966 616 980T641 994H944Q981 994 981 958V210Q981 88 1022 88Q1043 88 1069 96Q1085 101 1097 86T1109 53Q1109 42 1103 37Q1094 27 1068 13T1001 -13T911 -25Q860 -25 831 12T795 131Q777 97 729 60T616
-2T489 -27Q360 -27 282 36ZM505 1523T526 1536T581 1549Q615 1549 635 1534T676 1489L921 1110H808L581 1371L359 1110H241L486 1498Q505 1523 526 1536Z" />
<glyph unicode="&#xfc;" glyph-name="udieresis" horiz-adv-x="1178" d="M360 -27T282 36T203 270V819Q203 859 185 879T144 905T85 916Q63 918 56 924T49 953Q49 966 58 980T83 994H354Q391 994 391 958V261Q391 204 417 159T520 113Q618 113 681 139T795 220V819Q795
859 773 879T723 905T643 916Q621 918 614 924T607 953Q607 966 616 980T641 994H944Q981 994 981 958V210Q981 88 1022 88Q1043 88 1069 96Q1085 101 1097 86T1109 53Q1109 42 1103 37Q1094 27 1068 13T1001 -13T911 -25Q860 -25 831 12T795 131Q777 97 729 60T616
-2T489 -27Q360 -27 282 36ZM315 1182T287 1218T258 1316Q258 1377 286 1413T369 1450Q422 1450 451 1413T480 1316Q480 1256 451 1219T369 1182Q315 1182 287 1218ZM739 1182T711 1218T682 1316Q682 1377 710 1413T793 1450Q846 1450 875 1413T904 1316Q904 1256
875 1219T793 1182Q739 1182 711 1218Z" />
<glyph unicode="&#xfd;" glyph-name="yacute" horiz-adv-x="1008" d="M199 -449T159 -433T94 -388T70 -326Q70 -284 84 -257T119 -217T156 -204L280 -326Q325 -317 372 -253T477 -28L139 829Q111 876 84 894T17 916Q-5 918 -12 924T-19 953Q-19 967 -10 980T14
994H427Q443 994 452 981T461 953Q461 936 454 927T428 916Q376 911 349 901T322 862L566 199L786 862Q786 882 769 893T733 907T670 916Q651 918 644 927T637 953Q637 967 646 980T671 994H1006Q1021 994 1030 980T1040 953Q1040 931 1033 925T1004 916Q967 912
945 895T892 829L589 -9Q545 -132 505 -219T399 -378T246 -449Q199 -449 159 -433ZM419 1230T471 1298T580 1445Q627 1510 641 1524Q658 1540 680 1550T726 1560Q769 1560 798 1527Q826 1496 826 1461Q826 1417 788 1379Q777 1368 726 1335Q649 1286 574 1231T407
1094L351 1152Q419 1230 471 1298Z" />
<glyph unicode="&#xfe;" glyph-name="thorn" horiz-adv-x="1145" d="M16 -444T7 -430T-3 -403Q-3 -381 4 -375T33 -366Q69 -362 93 -356T136 -329T155 -269V1339Q155 1386 137 1410T93 1443T30 1458Q25 1459 14 1460T-4 1464Q-16 1469 -22 1478T-28 1504Q-28 1518
-22 1532T-4 1548Q162 1558 311 1558Q321 1558 330 1549T341 1518V1104L331 875Q381 936 464 974T625 1013Q772 1013 868 942T1008 753T1053 492Q1053 352 1004 233T853 42T603 -30Q423 -30 341 41V-302Q341 -355 507 -366Q526 -368 533 -377T540 -403Q540 -417
531 -430T506 -444H31Q16 -444 7 -430ZM717 65T778 178T839 492Q839 691 776 804T562 918Q505 918 440 886T341 808V170Q397 65 566 65Q717 65 778 178Z" />
<glyph unicode="&#xff;" glyph-name="ydieresis" horiz-adv-x="1008" d="M199 -449T159 -433T94 -388T70 -326Q70 -284 84 -257T119 -217T156 -204L280 -326Q325 -317 372 -253T477 -28L139 829Q111 876 84 894T17 916Q-5 918 -12 924T-19 953Q-19 967 -10 980T14
994H427Q443 994 452 981T461 953Q461 936 454 927T428 916Q376 911 349 901T322 862L566 199L786 862Q786 882 769 893T733 907T670 916Q651 918 644 927T637 953Q637 967 646 980T671 994H1006Q1021 994 1030 980T1040 953Q1040 931 1033 925T1004 916Q967 912
945 895T892 829L589 -9Q545 -132 505 -219T399 -378T246 -449Q199 -449 159 -433ZM243 1182T215 1218T186 1316Q186 1377 214 1413T297 1450Q350 1450 379 1413T408 1316Q408 1256 379 1219T297 1182Q243 1182 215 1218ZM667 1182T639 1218T610 1316Q610 1377
638 1413T721 1450Q774 1450 803 1413T832 1316Q832 1256 803 1219T721 1182Q667 1182 639 1218Z" />
<glyph unicode="&#x2013;" glyph-name="endash" horiz-adv-x="1317" d="M106 622H1211V496H106V622Z" />
<glyph unicode="&#x2014;" glyph-name="emdash" horiz-adv-x="1755" d="M106 622H1649V496H106V622Z" />
<glyph unicode="&#x2018;" glyph-name="quoteleft" horiz-adv-x="464" d="M323 1688T339 1688Q358 1688 371 1678T385 1651Q385 1635 376 1621Q323 1564 297 1487T271 1354Q271 1341 272 1336Q272 1333 290 1326Q333 1307 363 1278T394 1190Q394 1152 375 1120T322
1070T249 1052Q184 1052 136 1096T87 1243Q87 1324 127 1416T220 1582T310 1681Q323 1688 339 1688Z" />
<glyph unicode="&#x2019;" glyph-name="quoteright" horiz-adv-x="464" d="M163 1045T147 1045Q128 1045 115 1055T101 1082Q101 1098 110 1112Q163 1169 189 1246T215 1379Q215 1392 214 1397Q214 1400 196 1407Q153 1426 123 1455T92 1543Q92 1581 111 1613T164
1663T237 1681Q302 1681 350 1637T399 1490Q399 1409 359 1317T266 1151T176 1052Q163 1045 147 1045Z" />
<glyph unicode="&#x201a;" glyph-name="quotesinglbase" horiz-adv-x="464" d="M152 -335T136 -335Q117 -335 104 -325T90 -298Q90 -282 99 -268Q152 -211 178 -134T204 -1Q204 12 203 17Q203 20 185 27Q142 46 112 75T81 163Q81 201 100 233T153 283T226 301Q291
301 339 257T388 110Q388 29 348 -63T255 -229T165 -328Q152 -335 136 -335Z" />
<glyph unicode="&#x201c;" glyph-name="quotedblleft" horiz-adv-x="840" d="M316 1684T332 1684Q351 1684 364 1674T378 1647Q378 1631 369 1617Q316 1560 290 1483T264 1350Q264 1337 265 1332Q265 1329 283 1322Q326 1303 356 1274T387 1186Q387 1148 368 1116T315
1066T242 1048Q177 1048 129 1092T80 1239Q80 1320 120 1412T213 1578T303 1677Q316 1684 332 1684ZM691 1684T707 1684Q726 1684 739 1674T753 1647Q753 1631 744 1617Q691 1560 665 1483T639 1350Q639 1337 640 1332Q640 1329 658 1322Q701 1303 731 1274T762
1186Q762 1148 743 1116T690 1066T617 1048Q552 1048 504 1092T455 1239Q455 1320 495 1412T588 1578T678 1677Q691 1684 707 1684Z" />
<glyph unicode="&#x201d;" glyph-name="quotedblright" horiz-adv-x="840" d="M417 1045T401 1045Q382 1045 369 1055T355 1082Q355 1098 364 1112Q417 1169 443 1246T469 1379Q469 1392 468 1397Q468 1400 450 1407Q407 1426 377 1455T346 1543Q346 1581 365
1613T418 1663T491 1681Q556 1681 604 1637T653 1490Q653 1409 613 1317T520 1151T430 1052Q417 1045 401 1045ZM541 1045T525 1045Q506 1045 493 1055T479 1082Q479 1098 488 1112Q541 1169 567 1246T593 1379Q593 1392 592 1397Q592 1400 574 1407Q531 1426 501
1455T470 1543Q470 1581 489 1613T542 1663T615 1681Q680 1681 728 1637T777 1490Q777 1409 737 1317T644 1151T554 1052Q541 1045 525 1045Z" />
<glyph unicode="&#x201e;" glyph-name="quotedblbase" horiz-adv-x="840" d="M135 -335T119 -335Q100 -335 87 -325T73 -298Q73 -282 82 -268Q135 -211 161 -134T187 -1Q187 12 186 17Q186 20 168 27Q125 46 95 75T64 163Q64 201 83 233T136 283T209 301Q274 301
322 257T371 110Q371 29 331 -63T238 -229T148 -328Q135 -335 119 -335ZM566 -335T550 -335Q531 -335 518 -325T504 -298Q504 -282 513 -268Q566 -211 592 -134T618 -1Q618 12 617 17Q617 20 599 27Q556 46 526 75T495 163Q495 201 514 233T567 283T640 301Q705
301 753 257T802 110Q802 29 762 -63T669 -229T579 -328Q566 -335 550 -335Z" />
<glyph unicode="&#x2022;" glyph-name="bullet" horiz-adv-x="804" d="M145 681T177 741T268 833T401 866Q475 866 533 834T625 741T658 601Q658 521 625 461T534 369T401 336Q327 336 269 368T178 461T145 601Q145 681 177 741Z" />
<glyph unicode="&#x2039;" glyph-name="guilsinglleft" horiz-adv-x="850" d="M648 895L383 554L648 214V70L175 495V614L648 1041V895Z" />
<glyph unicode="&#x203a;" glyph-name="guilsinglright" horiz-adv-x="850" d="M202 1041L675 614V495L202 70V214L467 554L202 895V1041Z" />
</font>
</defs>
</svg>
